<svg width="33" height="32" viewBox="0 0 33 32" fill="none" xmlns="http://www.w3.org/2000/svg">
<path fill-rule="evenodd" clip-rule="evenodd" d="M30.5551 16.0007C30.5551 23.9819 24.0712 30.4518 16.0726 30.4518C16.0726 23.6103 18.1415 14.9685 28.4862 13.9363H30.4083C30.5063 14.62 30.5553 15.31 30.5551 16.0007Z" stroke="#198391" stroke-width="3" stroke-linecap="round" stroke-linejoin="round"/>
<path d="M3.82141 12.3958C2.94704 12.3087 2.16552 12.9276 2.07584 13.7782C1.98617 14.6289 2.62229 15.3893 3.49666 15.4764L3.82141 12.3958ZM16.0726 30.4517V32C16.4946 32.0002 16.8995 31.8369 17.1978 31.5466C17.4964 31.2562 17.664 30.8625 17.664 30.4517H16.0726ZM28.8323 14.1518C28.9549 14.9987 29.7598 15.5885 30.63 15.4694C31.5005 15.3502 32.1067 14.5672 31.9843 13.7204L28.8323 14.1518ZM3.65903 15.4844C4.53798 15.4844 5.25053 14.7912 5.25053 13.9361C5.25053 13.081 4.53798 12.3878 3.65903 12.3878V15.4844ZM1.73698 12.3878C0.858032 12.3878 0.14549 13.081 0.14549 13.9361C0.14549 14.7912 0.858032 15.4844 1.73698 15.4844V12.3878ZM3.65903 12.3878C2.78009 12.3878 2.06754 13.081 2.06754 13.9361C2.06754 14.7912 2.78009 15.4844 3.65903 15.4844V12.3878ZM28.4862 15.4844C29.3653 15.4844 30.0777 14.7912 30.0777 13.9361C30.0777 13.081 29.3653 12.3878 28.4862 12.3878V15.4844ZM3.49666 15.4764C8.14475 15.9403 10.7951 18.0596 12.3566 20.7721C13.9735 23.5808 14.4811 27.1422 14.4811 30.4517H17.664C17.664 26.9196 17.1374 22.7393 15.1336 19.2589C13.0744 15.6818 9.51801 12.9644 3.82141 12.3958L3.49666 15.4764ZM16.0728 28.9033C9.22874 28.9027 3.52872 23.53 3.19799 16.6178L0.0184459 16.7617C0.424934 25.2571 7.45788 31.9992 16.0726 32L16.0728 28.9033ZM3.19799 16.6178C2.86715 9.70325 8.03196 3.80804 14.8486 3.15629L14.5373 0.0744663C5.96568 0.89401 -0.387915 8.26868 0.0184459 16.7617L3.19799 16.6178ZM14.8486 3.15629C21.6595 2.50508 27.8422 7.30671 28.8323 14.1518L31.9843 13.7204C30.766 5.29867 23.1146 -0.745614 14.5373 0.0744663L14.8486 3.15629ZM3.65903 12.3878H1.73698V15.4844H3.65903V12.3878ZM3.65903 15.4844H28.4862V12.3878H3.65903V15.4844Z" fill="#198391"/>
</svg>
