<svg width="32" height="36" viewBox="0 0 32 36" fill="none" xmlns="http://www.w3.org/2000/svg">
<path d="M12.4155 20.5641L12.4155 20.5644L12.426 20.5649C12.4453 20.5658 12.4618 20.5666 12.4758 20.5676H12.9892C14.4668 20.5676 15.5758 22.0422 15.5758 23.7384V34.2944C15.5758 34.8194 15.2265 35.3444 14.6858 35.3444C14.1451 35.3444 13.7958 34.8194 13.7958 34.2944V23.7384C13.7958 23.0922 13.3854 22.6676 12.9892 22.6676H12.988L12.9892 22.4176L12.988 22.6676H12.988L12.9879 22.6676H12.9876L12.9863 22.6676L12.9812 22.6676L12.962 22.6675L12.8933 22.6672L12.6842 22.6661L12.4732 22.6649L12.4018 22.6644L12.38 22.6642L12.3722 22.664L12.3712 22.664H6.37672C6.25103 22.664 6.12854 22.633 6.01684 22.5751C5.90547 22.5175 5.80827 22.4351 5.72893 22.3359L5.92414 22.1797L5.72893 22.3359L2.88446 18.7803C2.72157 18.5767 2.52167 18.4891 2.33579 18.4892C2.14996 18.4894 1.94879 18.5774 1.78366 18.7829C1.44542 19.2055 1.44534 19.9091 1.78383 20.3322L5.12624 24.5102L5.12625 24.5102C5.28471 24.7083 5.4846 24.803 5.70827 24.8005L5.71114 24.8004L11.2913 24.8005C11.832 24.8005 12.1813 25.3255 12.1813 25.8505V34.2944C12.1813 34.8194 11.832 35.3444 11.2913 35.3444C10.7506 35.3444 10.4013 34.8194 10.4013 34.2944V26.9004L9.87692 26.9003L8.17316 26.9L6.46867 26.8997L5.90637 26.8995L5.74844 26.8994L5.70655 26.8994L5.69548 26.8994L5.69466 26.8994L5.69218 26.8994L5.69048 26.8994L5.68856 26.8993C5.68716 26.8993 5.67748 26.8989 5.6692 26.8983L5.6923 26.6494L12.4155 20.5641ZM12.4155 20.5641H12.4033M12.4155 20.5641H12.4033M12.4033 20.5641H6.76196H12.4033ZM10.402 3.90575C9.02113 5.60403 9.02113 8.36954 10.402 10.0678L15.8224 16.7333C15.8681 16.7895 15.917 16.8059 15.954 16.8059C15.9911 16.8059 16.04 16.7895 16.0857 16.7334L21.5061 10.0679C21.5061 10.0679 21.5061 10.0678 21.5061 10.0678C22.8869 8.36957 22.8869 5.60408 21.5061 3.90589L10.402 3.90575ZM10.402 3.90575C11.0896 3.06018 11.9796 2.65006 12.8566 2.65006C13.7337 2.65007 14.6236 3.0602 15.3112 3.90581L15.5052 3.74808M10.402 3.90575L15.5052 3.74808M15.5052 3.74808L15.3112 3.90581C15.4783 4.11126 15.7092 4.22777 15.954 4.2278C16.1988 4.22783 16.4297 4.11136 16.5968 3.90589L16.4028 3.74815M15.5052 3.74808L16.4028 3.74815M16.4028 3.74815L16.5968 3.90589M16.4028 3.74815L16.5968 3.90589M16.5968 3.90589C17.2845 3.06028 18.1744 2.65014 19.0515 2.65014M16.5968 3.90589L19.0515 2.65014M19.0515 2.65014C19.9285 2.65014 20.8184 3.06027 21.5061 3.90587L19.0515 2.65014ZM22.7917 2.44977L22.7917 2.44975C21.8439 1.28422 20.6132 0.64723 19.3502 0.56032C18.1572 0.478223 16.9534 0.888342 15.954 1.77612C14.9546 0.888343 13.7509 0.478233 12.5578 0.56033C11.2948 0.647239 10.0642 1.28422 9.11637 2.44972L9.11636 2.44973C7.07637 4.95868 7.07637 9.01481 9.11633 11.5237L9.11634 11.5237L14.5368 18.1894L14.5369 18.1894C14.9182 18.6582 15.4294 18.9058 15.954 18.9058C16.4786 18.9058 16.9898 18.6583 17.3712 18.1895L17.3712 18.1894L22.7917 11.5238L22.7917 11.5238C24.8317 9.01481 24.8317 4.95868 22.7917 2.44977ZM18.9797 20.5677H18.9795C17.5018 20.5677 16.3929 22.0424 16.3929 23.7385V34.2945C16.3929 34.8195 16.7421 35.3445 17.2829 35.3445C17.8236 35.3445 18.1729 34.8195 18.1729 34.2945V23.7385C18.1729 23.0923 18.5833 22.6677 18.9795 22.6677H19.5379H19.5472L19.5565 22.667L19.5953 22.6641H25.592C25.8483 22.6641 26.0793 22.5365 26.2397 22.336L26.2398 22.336L29.0842 18.7804C29.2471 18.5768 29.4472 18.489 29.633 18.4888C29.8187 18.4885 30.0187 18.5757 30.1817 18.7785C30.5237 19.2062 30.523 19.9097 30.1849 20.3323L30.3801 20.4885L30.1849 20.3323L26.8425 24.5103C26.6818 24.7111 26.4812 24.8027 26.2841 24.7995L26.2723 24.7993L26.2605 24.8002C26.2589 24.8003 26.2574 24.8005 26.2558 24.8006H20.6775C20.1367 24.8006 19.7875 25.3256 19.7875 25.8506V34.2946C19.7875 34.8195 20.1367 35.3446 20.6775 35.3446C21.2182 35.3446 21.5675 34.8195 21.5675 34.2946V26.9006H26.2632C26.9757 26.9084 27.6474 26.5673 28.138 25.9541L27.9428 25.7979L28.138 25.9541L31.4804 21.776C32.4642 20.5464 32.4649 18.5718 31.4823 17.3415L31.4822 17.3414C30.9827 16.7168 30.3157 16.39 29.6344 16.3894C28.9532 16.3887 28.2867 16.7142 27.7887 17.3367L25.2068 20.5642H19.5655V20.5639L19.553 20.5645L19.5444 20.5649C19.522 20.5661 19.5034 20.567 19.4872 20.5682L18.9797 20.5677Z" fill="#198391" stroke="#198391" stroke-width="0.5"/>
</svg>
