<svg width="42" height="42" viewBox="0 0 42 42" fill="none" xmlns="http://www.w3.org/2000/svg">
<mask id="path-1-outside-1_8_135" maskUnits="userSpaceOnUse" x="0" y="0" width="42" height="42" fill="black">
<rect fill="white" width="42" height="42"/>
<path d="M2.36028 39.841H1V41H36.4402V39.841H35.6738V34.3067C35.6738 34.2014 35.6246 34.1004 35.5369 34.0259C35.4492 33.9514 35.3303 33.9096 35.2063 33.9096H29.9453C29.8213 33.9096 29.7024 33.9514 29.6147 34.0259C29.5271 34.1004 29.4778 34.2014 29.4778 34.3067V39.841H19.5727V31.9986C19.5717 31.8584 19.5054 31.7243 19.3884 31.6255C19.2714 31.5267 19.1131 31.4712 18.9481 31.4712H8.64058C8.47559 31.4712 8.31731 31.5267 8.20028 31.6255C8.08326 31.7243 8.01701 31.8584 8.016 31.9986V39.841H1V1.84317C1.0215 1.62753 1.13293 1.4255 1.31421 1.27346C1.51701 1.09975 1.79258 1.00141 2.08056 1H25.4966C25.6393 1.00034 25.7804 1.02469 25.912 1.07162C26.0435 1.11856 26.1628 1.18715 26.263 1.27346L26.3128 1.31578C26.4908 1.485 26.589 1.7041 26.5887 1.93107V12.2509H40.0842C40.2045 12.2509 40.3236 12.271 40.4347 12.3101C40.5458 12.3492 40.6467 12.4066 40.7318 12.4788C40.8169 12.5503 40.8844 12.6355 40.9304 12.7294C40.9765 12.8233 41.0001 12.924 41 13.0257V40.4661C41 40.6068 40.9342 40.7418 40.8171 40.8413C40.6999 40.9408 40.5411 40.9967 40.3754 40.9967H36.4402V39.8378H39.701V13.3675H26.5925V39.8476H25.2284V2.15569H2.36028V39.841ZM34.7542 39.841H30.4128V34.6909H34.7542V39.841ZM33.7426 15.6464H37.1184C37.1452 15.6464 37.1682 15.6789 37.1682 15.718V17.5769C37.1682 17.6094 37.1452 17.6452 37.1184 17.6452H33.7426C33.7158 17.6452 33.6928 17.6159 33.6928 17.5769V15.718C33.6928 15.6789 33.7158 15.6464 33.7426 15.6464ZM33.7426 28.538H37.1184C37.1452 28.538 37.1682 28.5706 37.1682 28.6064V30.4653C37.1682 30.5011 37.1452 30.5369 37.1184 30.5369H33.7426C33.7158 30.5369 33.6928 30.5044 33.6928 30.4653V28.6064C33.6928 28.5706 33.7158 28.538 33.7426 28.538ZM28.0524 28.538H31.4244C31.455 28.538 31.478 28.5706 31.478 28.6064V30.4653C31.478 30.5011 31.455 30.5369 31.4244 30.5369H28.0524C28.0217 30.5369 27.9988 30.5044 27.9988 30.4653V28.6064C27.9988 28.5706 28.0217 28.538 28.0524 28.538ZM33.7426 24.2408H37.1184C37.1452 24.2408 37.1682 24.2734 37.1682 24.3124V26.1713C37.1682 26.2071 37.1452 26.2429 37.1184 26.2429H33.7426C33.7158 26.2429 33.6928 26.2104 33.6928 26.1713V24.3124C33.6928 24.2701 33.7158 24.2408 33.7426 24.2408ZM33.7426 19.9436H37.1184C37.1452 19.9436 37.1682 19.9762 37.1682 20.0152V21.8741C37.1682 21.9099 37.1452 21.9457 37.1184 21.9457H33.7426C33.7158 21.9457 33.6928 21.9132 33.6928 21.8741V20.0152C33.6928 19.9762 33.7158 19.9436 33.7426 19.9436ZM28.0524 15.6464H31.4244C31.455 15.6464 31.478 15.6789 31.478 15.718V17.5769C31.478 17.6094 31.455 17.6452 31.4244 17.6452H28.0524C28.0217 17.6452 27.9988 17.6159 27.9988 17.5769V15.718C27.9988 15.6789 28.0217 15.6464 28.0524 15.6464ZM28.0524 24.2408H31.4244C31.455 24.2408 31.478 24.2734 31.478 24.3124V26.1713C31.478 26.2071 31.455 26.2429 31.4244 26.2429H28.0524C28.0217 26.2429 27.9988 26.2104 27.9988 26.1713V24.3124C27.9988 24.2701 28.0217 24.2408 28.0524 24.2408ZM28.0524 19.9436H31.4244C31.455 19.9436 31.478 19.9762 31.478 20.0152V21.8741C31.478 21.9099 31.455 21.9457 31.4244 21.9457H28.0524C28.0217 21.9457 27.9988 21.9132 27.9988 21.8741V20.0152C27.9988 19.9762 28.0217 19.9436 28.0524 19.9436ZM18.3235 39.841H9.26516V32.5293H18.3235V39.841ZM5.64795 5.0726H9.3188C9.34594 5.07341 9.3717 5.08293 9.3909 5.09924C9.4101 5.11555 9.42131 5.13744 9.42226 5.16049V8.28249C9.42131 8.30555 9.4101 8.32744 9.3909 8.34375C9.3717 8.36006 9.34594 8.36958 9.3188 8.37039H5.64795C5.62082 8.36958 5.59505 8.36006 5.57586 8.34375C5.55666 8.32744 5.54545 8.30555 5.5445 8.28249V5.16049C5.54545 5.13744 5.55666 5.11555 5.57586 5.09924C5.59505 5.08293 5.62082 5.07341 5.64795 5.0726ZM18.2699 5.0726H21.9407C21.9678 5.07341 21.9936 5.08293 22.0128 5.09924C22.032 5.11555 22.0432 5.13744 22.0442 5.16049V8.28249C22.0432 8.30555 22.032 8.32744 22.0128 8.34375C21.9936 8.36006 21.9678 8.36958 21.9407 8.37039H18.2699C18.2427 8.36958 18.217 8.36006 18.1978 8.34375C18.1786 8.32744 18.1673 8.30555 18.1664 8.28249V5.16049C18.1673 5.13744 18.1786 5.11555 18.1978 5.09924C18.217 5.08293 18.2427 5.07341 18.2699 5.0726ZM11.9589 5.0726H15.6298C15.6569 5.07341 15.6827 5.08293 15.7019 5.09924C15.7211 5.11555 15.7323 5.13744 15.7332 5.16049V8.28249C15.7323 8.30555 15.7211 8.32744 15.7019 8.34375C15.6827 8.36006 15.6569 8.36958 15.6298 8.37039H11.9589C11.9318 8.36958 11.906 8.36006 11.8868 8.34375C11.8676 8.32744 11.8564 8.30555 11.8554 8.28249V5.16049C11.8564 5.13744 11.8676 5.11555 11.8868 5.09924C11.906 5.08293 11.9318 5.07341 11.9589 5.0726ZM5.64795 11.831H9.3188C9.34594 11.8318 9.3717 11.8413 9.3909 11.8576C9.4101 11.8739 9.42131 11.8958 9.42226 11.9189V15.0409C9.42131 15.0639 9.4101 15.0858 9.3909 15.1021C9.3717 15.1184 9.34594 15.1279 9.3188 15.1288H5.64795C5.62082 15.1279 5.59505 15.1184 5.57586 15.1021C5.55666 15.0858 5.54545 15.0639 5.5445 15.0409V11.9189C5.54545 11.8958 5.55666 11.8739 5.57586 11.8576C5.59505 11.8413 5.62082 11.8318 5.64795 11.831ZM18.2699 11.831H21.9407C21.9678 11.8318 21.9936 11.8413 22.0128 11.8576C22.032 11.8739 22.0432 11.8958 22.0442 11.9189V15.0409C22.0432 15.0639 22.032 15.0858 22.0128 15.1021C21.9936 15.1184 21.9678 15.1279 21.9407 15.1288H18.2699C18.2427 15.1279 18.217 15.1184 18.1978 15.1021C18.1786 15.0858 18.1673 15.0639 18.1664 15.0409V11.9189C18.1673 11.8958 18.1786 11.8739 18.1978 11.8576C18.217 11.8413 18.2427 11.8318 18.2699 11.831ZM11.9589 11.831H15.6298C15.6569 11.8318 15.6827 11.8413 15.7019 11.8576C15.7211 11.8739 15.7323 11.8958 15.7332 11.9189V15.0409C15.7323 15.0639 15.7211 15.0858 15.7019 15.1021C15.6827 15.1184 15.6569 15.1279 15.6298 15.1288H11.9589C11.9318 15.1279 11.906 15.1184 11.8868 15.1021C11.8676 15.0858 11.8564 15.0639 11.8554 15.0409V11.9189C11.8564 11.8958 11.8676 11.8739 11.8868 11.8576C11.906 11.8413 11.9318 11.8318 11.9589 11.831ZM5.64795 25.3477H9.3188C9.34624 25.3477 9.37256 25.3569 9.39196 25.3734C9.41136 25.3899 9.42226 25.4123 9.42226 25.4356V28.5543C9.42226 28.5776 9.41136 28.6 9.39196 28.6165C9.37256 28.633 9.34624 28.6422 9.3188 28.6422H5.64795C5.62052 28.6422 5.5942 28.633 5.5748 28.6165C5.5554 28.6 5.5445 28.5776 5.5445 28.5543V25.4356C5.5445 25.4123 5.5554 25.3899 5.5748 25.3734C5.5942 25.3569 5.62052 25.3477 5.64795 25.3477ZM18.2699 25.3477H21.9407C21.9681 25.3477 21.9945 25.3569 22.0139 25.3734C22.0333 25.3899 22.0442 25.4123 22.0442 25.4356V28.5543C22.0442 28.5776 22.0333 28.6 22.0139 28.6165C21.9945 28.633 21.9681 28.6422 21.9407 28.6422H18.2699C18.2424 28.6422 18.2161 28.633 18.1967 28.6165C18.1773 28.6 18.1664 28.5776 18.1664 28.5543V25.4356C18.1664 25.4123 18.1773 25.3899 18.1967 25.3734C18.2161 25.3569 18.2424 25.3477 18.2699 25.3477ZM11.9589 25.3477H15.6298C15.6572 25.3477 15.6835 25.3569 15.7029 25.3734C15.7223 25.3899 15.7332 25.4123 15.7332 25.4356V28.5543C15.7332 28.5776 15.7223 28.6 15.7029 28.6165C15.6835 28.633 15.6572 28.6422 15.6298 28.6422H11.9589C11.9315 28.6422 11.9052 28.633 11.8857 28.6165C11.8663 28.6 11.8554 28.5776 11.8554 28.5543V25.4356C11.8554 25.4123 11.8663 25.3899 11.8857 25.3734C11.9052 25.3569 11.9315 25.3477 11.9589 25.3477ZM5.64795 18.5763H9.3188C9.34624 18.5763 9.37256 18.5856 9.39196 18.602C9.41136 18.6185 9.42226 18.6409 9.42226 18.6642V21.7992C9.42131 21.8223 9.4101 21.8442 9.3909 21.8605C9.3717 21.8768 9.34594 21.8863 9.3188 21.8871H5.64795C5.62082 21.8863 5.59505 21.8768 5.57586 21.8605C5.55666 21.8442 5.54545 21.8223 5.5445 21.7992V18.6772C5.5445 18.6539 5.5554 18.6316 5.5748 18.6151C5.5942 18.5986 5.62052 18.5893 5.64795 18.5893V18.5763ZM18.2699 18.5763H21.9407C21.9681 18.5763 21.9945 18.5856 22.0139 18.602C22.0333 18.6185 22.0442 18.6409 22.0442 18.6642V21.7992C22.0432 21.8223 22.032 21.8442 22.0128 21.8605C21.9936 21.8768 21.9678 21.8863 21.9407 21.8871H18.2699C18.2427 21.8863 18.217 21.8768 18.1978 21.8605C18.1786 21.8442 18.1673 21.8223 18.1664 21.7992V18.6772C18.1664 18.6539 18.1773 18.6316 18.1967 18.6151C18.2161 18.5986 18.2424 18.5893 18.2699 18.5893V18.5763ZM11.9589 18.5763H15.6298C15.6572 18.5763 15.6835 18.5856 15.7029 18.602C15.7223 18.6185 15.7332 18.6409 15.7332 18.6642V21.7992C15.7323 21.8223 15.7211 21.8442 15.7019 21.8605C15.6827 21.8768 15.6569 21.8863 15.6298 21.8871H11.9589C11.9318 21.8863 11.906 21.8768 11.8868 21.8605C11.8676 21.8442 11.8564 21.8223 11.8554 21.7992V18.6772C11.8532 18.6646 11.8542 18.6518 11.8584 18.6396C11.8626 18.6274 11.8699 18.6161 11.8797 18.6065C11.8896 18.5969 11.9018 18.5892 11.9154 18.584C11.9291 18.5788 11.9439 18.5762 11.9589 18.5763Z"/>
</mask>
<path d="M2.36028 39.841H1V41H36.4402V39.841H35.6738V34.3067C35.6738 34.2014 35.6246 34.1004 35.5369 34.0259C35.4492 33.9514 35.3303 33.9096 35.2063 33.9096H29.9453C29.8213 33.9096 29.7024 33.9514 29.6147 34.0259C29.5271 34.1004 29.4778 34.2014 29.4778 34.3067V39.841H19.5727V31.9986C19.5717 31.8584 19.5054 31.7243 19.3884 31.6255C19.2714 31.5267 19.1131 31.4712 18.9481 31.4712H8.64058C8.47559 31.4712 8.31731 31.5267 8.20028 31.6255C8.08326 31.7243 8.01701 31.8584 8.016 31.9986V39.841H1V1.84317C1.0215 1.62753 1.13293 1.4255 1.31421 1.27346C1.51701 1.09975 1.79258 1.00141 2.08056 1H25.4966C25.6393 1.00034 25.7804 1.02469 25.912 1.07162C26.0435 1.11856 26.1628 1.18715 26.263 1.27346L26.3128 1.31578C26.4908 1.485 26.589 1.7041 26.5887 1.93107V12.2509H40.0842C40.2045 12.2509 40.3236 12.271 40.4347 12.3101C40.5458 12.3492 40.6467 12.4066 40.7318 12.4788C40.8169 12.5503 40.8844 12.6355 40.9304 12.7294C40.9765 12.8233 41.0001 12.924 41 13.0257V40.4661C41 40.6068 40.9342 40.7418 40.8171 40.8413C40.6999 40.9408 40.5411 40.9967 40.3754 40.9967H36.4402V39.8378H39.701V13.3675H26.5925V39.8476H25.2284V2.15569H2.36028V39.841ZM34.7542 39.841H30.4128V34.6909H34.7542V39.841ZM33.7426 15.6464H37.1184C37.1452 15.6464 37.1682 15.6789 37.1682 15.718V17.5769C37.1682 17.6094 37.1452 17.6452 37.1184 17.6452H33.7426C33.7158 17.6452 33.6928 17.6159 33.6928 17.5769V15.718C33.6928 15.6789 33.7158 15.6464 33.7426 15.6464ZM33.7426 28.538H37.1184C37.1452 28.538 37.1682 28.5706 37.1682 28.6064V30.4653C37.1682 30.5011 37.1452 30.5369 37.1184 30.5369H33.7426C33.7158 30.5369 33.6928 30.5044 33.6928 30.4653V28.6064C33.6928 28.5706 33.7158 28.538 33.7426 28.538ZM28.0524 28.538H31.4244C31.455 28.538 31.478 28.5706 31.478 28.6064V30.4653C31.478 30.5011 31.455 30.5369 31.4244 30.5369H28.0524C28.0217 30.5369 27.9988 30.5044 27.9988 30.4653V28.6064C27.9988 28.5706 28.0217 28.538 28.0524 28.538ZM33.7426 24.2408H37.1184C37.1452 24.2408 37.1682 24.2734 37.1682 24.3124V26.1713C37.1682 26.2071 37.1452 26.2429 37.1184 26.2429H33.7426C33.7158 26.2429 33.6928 26.2104 33.6928 26.1713V24.3124C33.6928 24.2701 33.7158 24.2408 33.7426 24.2408ZM33.7426 19.9436H37.1184C37.1452 19.9436 37.1682 19.9762 37.1682 20.0152V21.8741C37.1682 21.9099 37.1452 21.9457 37.1184 21.9457H33.7426C33.7158 21.9457 33.6928 21.9132 33.6928 21.8741V20.0152C33.6928 19.9762 33.7158 19.9436 33.7426 19.9436ZM28.0524 15.6464H31.4244C31.455 15.6464 31.478 15.6789 31.478 15.718V17.5769C31.478 17.6094 31.455 17.6452 31.4244 17.6452H28.0524C28.0217 17.6452 27.9988 17.6159 27.9988 17.5769V15.718C27.9988 15.6789 28.0217 15.6464 28.0524 15.6464ZM28.0524 24.2408H31.4244C31.455 24.2408 31.478 24.2734 31.478 24.3124V26.1713C31.478 26.2071 31.455 26.2429 31.4244 26.2429H28.0524C28.0217 26.2429 27.9988 26.2104 27.9988 26.1713V24.3124C27.9988 24.2701 28.0217 24.2408 28.0524 24.2408ZM28.0524 19.9436H31.4244C31.455 19.9436 31.478 19.9762 31.478 20.0152V21.8741C31.478 21.9099 31.455 21.9457 31.4244 21.9457H28.0524C28.0217 21.9457 27.9988 21.9132 27.9988 21.8741V20.0152C27.9988 19.9762 28.0217 19.9436 28.0524 19.9436ZM18.3235 39.841H9.26516V32.5293H18.3235V39.841ZM5.64795 5.0726H9.3188C9.34594 5.07341 9.3717 5.08293 9.3909 5.09924C9.4101 5.11555 9.42131 5.13744 9.42226 5.16049V8.28249C9.42131 8.30555 9.4101 8.32744 9.3909 8.34375C9.3717 8.36006 9.34594 8.36958 9.3188 8.37039H5.64795C5.62082 8.36958 5.59505 8.36006 5.57586 8.34375C5.55666 8.32744 5.54545 8.30555 5.5445 8.28249V5.16049C5.54545 5.13744 5.55666 5.11555 5.57586 5.09924C5.59505 5.08293 5.62082 5.07341 5.64795 5.0726ZM18.2699 5.0726H21.9407C21.9678 5.07341 21.9936 5.08293 22.0128 5.09924C22.032 5.11555 22.0432 5.13744 22.0442 5.16049V8.28249C22.0432 8.30555 22.032 8.32744 22.0128 8.34375C21.9936 8.36006 21.9678 8.36958 21.9407 8.37039H18.2699C18.2427 8.36958 18.217 8.36006 18.1978 8.34375C18.1786 8.32744 18.1673 8.30555 18.1664 8.28249V5.16049C18.1673 5.13744 18.1786 5.11555 18.1978 5.09924C18.217 5.08293 18.2427 5.07341 18.2699 5.0726ZM11.9589 5.0726H15.6298C15.6569 5.07341 15.6827 5.08293 15.7019 5.09924C15.7211 5.11555 15.7323 5.13744 15.7332 5.16049V8.28249C15.7323 8.30555 15.7211 8.32744 15.7019 8.34375C15.6827 8.36006 15.6569 8.36958 15.6298 8.37039H11.9589C11.9318 8.36958 11.906 8.36006 11.8868 8.34375C11.8676 8.32744 11.8564 8.30555 11.8554 8.28249V5.16049C11.8564 5.13744 11.8676 5.11555 11.8868 5.09924C11.906 5.08293 11.9318 5.07341 11.9589 5.0726ZM5.64795 11.831H9.3188C9.34594 11.8318 9.3717 11.8413 9.3909 11.8576C9.4101 11.8739 9.42131 11.8958 9.42226 11.9189V15.0409C9.42131 15.0639 9.4101 15.0858 9.3909 15.1021C9.3717 15.1184 9.34594 15.1279 9.3188 15.1288H5.64795C5.62082 15.1279 5.59505 15.1184 5.57586 15.1021C5.55666 15.0858 5.54545 15.0639 5.5445 15.0409V11.9189C5.54545 11.8958 5.55666 11.8739 5.57586 11.8576C5.59505 11.8413 5.62082 11.8318 5.64795 11.831ZM18.2699 11.831H21.9407C21.9678 11.8318 21.9936 11.8413 22.0128 11.8576C22.032 11.8739 22.0432 11.8958 22.0442 11.9189V15.0409C22.0432 15.0639 22.032 15.0858 22.0128 15.1021C21.9936 15.1184 21.9678 15.1279 21.9407 15.1288H18.2699C18.2427 15.1279 18.217 15.1184 18.1978 15.1021C18.1786 15.0858 18.1673 15.0639 18.1664 15.0409V11.9189C18.1673 11.8958 18.1786 11.8739 18.1978 11.8576C18.217 11.8413 18.2427 11.8318 18.2699 11.831ZM11.9589 11.831H15.6298C15.6569 11.8318 15.6827 11.8413 15.7019 11.8576C15.7211 11.8739 15.7323 11.8958 15.7332 11.9189V15.0409C15.7323 15.0639 15.7211 15.0858 15.7019 15.1021C15.6827 15.1184 15.6569 15.1279 15.6298 15.1288H11.9589C11.9318 15.1279 11.906 15.1184 11.8868 15.1021C11.8676 15.0858 11.8564 15.0639 11.8554 15.0409V11.9189C11.8564 11.8958 11.8676 11.8739 11.8868 11.8576C11.906 11.8413 11.9318 11.8318 11.9589 11.831ZM5.64795 25.3477H9.3188C9.34624 25.3477 9.37256 25.3569 9.39196 25.3734C9.41136 25.3899 9.42226 25.4123 9.42226 25.4356V28.5543C9.42226 28.5776 9.41136 28.6 9.39196 28.6165C9.37256 28.633 9.34624 28.6422 9.3188 28.6422H5.64795C5.62052 28.6422 5.5942 28.633 5.5748 28.6165C5.5554 28.6 5.5445 28.5776 5.5445 28.5543V25.4356C5.5445 25.4123 5.5554 25.3899 5.5748 25.3734C5.5942 25.3569 5.62052 25.3477 5.64795 25.3477ZM18.2699 25.3477H21.9407C21.9681 25.3477 21.9945 25.3569 22.0139 25.3734C22.0333 25.3899 22.0442 25.4123 22.0442 25.4356V28.5543C22.0442 28.5776 22.0333 28.6 22.0139 28.6165C21.9945 28.633 21.9681 28.6422 21.9407 28.6422H18.2699C18.2424 28.6422 18.2161 28.633 18.1967 28.6165C18.1773 28.6 18.1664 28.5776 18.1664 28.5543V25.4356C18.1664 25.4123 18.1773 25.3899 18.1967 25.3734C18.2161 25.3569 18.2424 25.3477 18.2699 25.3477ZM11.9589 25.3477H15.6298C15.6572 25.3477 15.6835 25.3569 15.7029 25.3734C15.7223 25.3899 15.7332 25.4123 15.7332 25.4356V28.5543C15.7332 28.5776 15.7223 28.6 15.7029 28.6165C15.6835 28.633 15.6572 28.6422 15.6298 28.6422H11.9589C11.9315 28.6422 11.9052 28.633 11.8857 28.6165C11.8663 28.6 11.8554 28.5776 11.8554 28.5543V25.4356C11.8554 25.4123 11.8663 25.3899 11.8857 25.3734C11.9052 25.3569 11.9315 25.3477 11.9589 25.3477ZM5.64795 18.5763H9.3188C9.34624 18.5763 9.37256 18.5856 9.39196 18.602C9.41136 18.6185 9.42226 18.6409 9.42226 18.6642V21.7992C9.42131 21.8223 9.4101 21.8442 9.3909 21.8605C9.3717 21.8768 9.34594 21.8863 9.3188 21.8871H5.64795C5.62082 21.8863 5.59505 21.8768 5.57586 21.8605C5.55666 21.8442 5.54545 21.8223 5.5445 21.7992V18.6772C5.5445 18.6539 5.5554 18.6316 5.5748 18.6151C5.5942 18.5986 5.62052 18.5893 5.64795 18.5893V18.5763ZM18.2699 18.5763H21.9407C21.9681 18.5763 21.9945 18.5856 22.0139 18.602C22.0333 18.6185 22.0442 18.6409 22.0442 18.6642V21.7992C22.0432 21.8223 22.032 21.8442 22.0128 21.8605C21.9936 21.8768 21.9678 21.8863 21.9407 21.8871H18.2699C18.2427 21.8863 18.217 21.8768 18.1978 21.8605C18.1786 21.8442 18.1673 21.8223 18.1664 21.7992V18.6772C18.1664 18.6539 18.1773 18.6316 18.1967 18.6151C18.2161 18.5986 18.2424 18.5893 18.2699 18.5893V18.5763ZM11.9589 18.5763H15.6298C15.6572 18.5763 15.6835 18.5856 15.7029 18.602C15.7223 18.6185 15.7332 18.6409 15.7332 18.6642V21.7992C15.7323 21.8223 15.7211 21.8442 15.7019 21.8605C15.6827 21.8768 15.6569 21.8863 15.6298 21.8871H11.9589C11.9318 21.8863 11.906 21.8768 11.8868 21.8605C11.8676 21.8442 11.8564 21.8223 11.8554 21.7992V18.6772C11.8532 18.6646 11.8542 18.6518 11.8584 18.6396C11.8626 18.6274 11.8699 18.6161 11.8797 18.6065C11.8896 18.5969 11.9018 18.5892 11.9154 18.584C11.9291 18.5788 11.9439 18.5762 11.9589 18.5763Z" fill="#198391"/>
<path d="M2.36028 39.841V40.341H2.86028V39.841H2.36028ZM1 41H0.5V41.5H1V41ZM36.4402 41V41.5H36.9402V41H36.4402ZM36.4402 39.841H36.9402V39.341H36.4402V39.841ZM35.6738 39.841H35.1738V40.341H35.6738V39.841ZM29.4778 39.841V40.341H29.9778V39.841H29.4778ZM19.5727 39.841H19.0727V40.341H19.5727V39.841ZM19.5727 31.9986H20.0727L20.0726 31.995L19.5727 31.9986ZM18.9481 31.4712L18.9481 31.9712L18.9481 31.9712L18.9481 31.4712ZM8.64058 31.4712L8.64057 31.9712H8.64058V31.4712ZM8.016 31.9986L7.516 31.995V31.9986H8.016ZM8.016 39.841V40.341H8.516V39.841H8.016ZM1 1.84317L0.502468 1.79355L0.5 1.8183V1.84317H1ZM1.31421 1.27346L1.63553 1.65658L1.63948 1.65319L1.31421 1.27346ZM2.08056 1L2.08056 0.499994L2.07811 0.500006L2.08056 1ZM25.4966 1L25.4978 0.5H25.4966V1ZM26.263 1.27346L25.9366 1.65226L25.9392 1.6545L26.263 1.27346ZM26.3128 1.31578L26.6572 0.953377L26.6471 0.943768L26.6365 0.934738L26.3128 1.31578ZM26.5887 1.93107L26.0887 1.93022V1.93107H26.5887ZM26.5887 12.2509H26.0887V12.7509H26.5887V12.2509ZM40.0842 12.2509L40.0842 12.7509L40.0842 12.7509L40.0842 12.2509ZM40.7318 12.4788L40.408 12.8599L40.41 12.8615L40.7318 12.4788ZM41 13.0257L40.5 13.0251V13.0257H41ZM36.4402 40.9967H35.9402V41.4967H36.4402V40.9967ZM36.4402 39.8378V39.3378H35.9402V39.8378H36.4402ZM39.701 39.8378V40.3378H40.201V39.8378H39.701ZM39.701 13.3675H40.201V12.8675H39.701V13.3675ZM26.5925 13.3675V12.8675H26.0925V13.3675H26.5925ZM26.5925 39.8476V40.3476H27.0925V39.8476H26.5925ZM25.2284 39.8476H24.7284V40.3476H25.2284V39.8476ZM25.2284 2.15569H25.7284V1.65569H25.2284V2.15569ZM2.36028 2.15569V1.65569H1.86028V2.15569H2.36028ZM34.7542 39.841V40.341H35.2542V39.841H34.7542ZM30.4128 39.841H29.9128V40.341H30.4128V39.841ZM30.4128 34.6909V34.1909H29.9128V34.6909H30.4128ZM34.7542 34.6909H35.2542V34.1909H34.7542V34.6909ZM18.3235 39.841V40.341H18.8235V39.841H18.3235ZM9.26516 39.841H8.76516V40.341H9.26516V39.841ZM9.26516 32.5293V32.0293H8.76516V32.5293H9.26516ZM18.3235 32.5293H18.8235V32.0293H18.3235V32.5293ZM5.64795 5.0726V4.5726H5.6405L5.63304 4.57282L5.64795 5.0726ZM9.3188 5.0726L9.33372 4.57282L9.32626 4.5726H9.3188V5.0726ZM9.42226 5.16049H9.92226V5.15016L9.92184 5.13984L9.42226 5.16049ZM9.42226 8.28249L9.92184 8.30314L9.92226 8.29282V8.28249H9.42226ZM9.3188 8.37039V8.87039H9.32626L9.33372 8.87017L9.3188 8.37039ZM5.64795 8.37039L5.63304 8.87017L5.6405 8.87039H5.64795V8.37039ZM5.5445 8.28249H5.0445V8.29282L5.04492 8.30314L5.5445 8.28249ZM5.5445 5.16049L5.04492 5.13984L5.0445 5.15016V5.16049H5.5445ZM18.2699 5.0726V4.5726H18.2624L18.2549 4.57282L18.2699 5.0726ZM21.9407 5.0726L21.9556 4.57282L21.9482 4.5726H21.9407V5.0726ZM22.0442 5.16049H22.5442V5.15016L22.5437 5.13984L22.0442 5.16049ZM22.0442 8.28249L22.5437 8.30314L22.5442 8.29282V8.28249H22.0442ZM21.9407 8.37039V8.87039H21.9482L21.9556 8.87017L21.9407 8.37039ZM18.2699 8.37039L18.2549 8.87017L18.2624 8.87039H18.2699V8.37039ZM18.1664 8.28249H17.6664V8.29282L17.6668 8.30314L18.1664 8.28249ZM18.1664 5.16049L17.6668 5.13984L17.6664 5.15016V5.16049H18.1664ZM11.9589 5.0726V4.5726H11.9514L11.944 4.57282L11.9589 5.0726ZM15.6298 5.0726L15.6447 4.57282L15.6372 4.5726H15.6298V5.0726ZM15.7332 5.16049H16.2332V5.15016L16.2328 5.13984L15.7332 5.16049ZM15.7332 8.28249L16.2328 8.30314L16.2332 8.29282V8.28249H15.7332ZM15.6298 8.37039V8.87039H15.6372L15.6447 8.87017L15.6298 8.37039ZM11.9589 8.37039L11.944 8.87017L11.9514 8.87039H11.9589V8.37039ZM11.8554 8.28249H11.3554V8.29282L11.3559 8.30314L11.8554 8.28249ZM11.8554 5.16049L11.3559 5.13984L11.3554 5.15016V5.16049H11.8554ZM5.64795 11.831V11.331H5.6405L5.63304 11.3312L5.64795 11.831ZM9.3188 11.831L9.33372 11.3312L9.32626 11.331H9.3188V11.831ZM9.42226 11.9189H9.92226V11.9085L9.92184 11.8982L9.42226 11.9189ZM9.42226 15.0409L9.92184 15.0615L9.92226 15.0512V15.0409H9.42226ZM9.3188 15.1288V15.6288H9.32626L9.33372 15.6285L9.3188 15.1288ZM5.64795 15.1288L5.63304 15.6285L5.6405 15.6288H5.64795V15.1288ZM5.5445 15.0409H5.0445V15.0512L5.04492 15.0615L5.5445 15.0409ZM5.5445 11.9189L5.04492 11.8982L5.0445 11.9085V11.9189H5.5445ZM18.2699 11.831V11.331H18.2624L18.2549 11.3312L18.2699 11.831ZM21.9407 11.831L21.9556 11.3312L21.9482 11.331H21.9407V11.831ZM22.0442 11.9189H22.5442V11.9085L22.5437 11.8982L22.0442 11.9189ZM22.0442 15.0409L22.5437 15.0615L22.5442 15.0512V15.0409H22.0442ZM21.9407 15.1288V15.6288H21.9482L21.9556 15.6285L21.9407 15.1288ZM18.2699 15.1288L18.2549 15.6285L18.2624 15.6288H18.2699V15.1288ZM18.1664 15.0409H17.6664V15.0512L17.6668 15.0615L18.1664 15.0409ZM18.1664 11.9189L17.6668 11.8982L17.6664 11.9085V11.9189H18.1664ZM11.9589 11.831V11.331H11.9514L11.944 11.3312L11.9589 11.831ZM15.6298 11.831L15.6447 11.3312L15.6372 11.331H15.6298V11.831ZM15.7332 11.9189H16.2332V11.9085L16.2328 11.8982L15.7332 11.9189ZM15.7332 15.0409L16.2328 15.0615L16.2332 15.0512V15.0409H15.7332ZM15.6298 15.1288V15.6288H15.6372L15.6447 15.6285L15.6298 15.1288ZM11.9589 15.1288L11.944 15.6285L11.9514 15.6288H11.9589V15.1288ZM11.8554 15.0409H11.3554V15.0512L11.3559 15.0615L11.8554 15.0409ZM11.8554 11.9189L11.3559 11.8982L11.3554 11.9085V11.9189H11.8554ZM9.3188 25.3477L9.3188 25.8477L9.3188 25.3477ZM5.64795 28.6422L5.64795 28.1422L5.64795 28.6422ZM21.9407 25.3477L21.9407 25.8477L21.9407 25.3477ZM22.0442 28.5543H22.5442H22.0442ZM18.2699 28.6422L18.2699 28.1422L18.2699 28.6422ZM15.6298 25.3477L15.6298 25.8477L15.6298 25.3477ZM15.7332 28.5543H16.2332H15.7332ZM11.9589 28.6422L11.9589 28.1422L11.9589 28.6422ZM5.64795 18.5763V18.0763H5.14795V18.5763H5.64795ZM9.3188 18.5763V18.0763V18.5763ZM9.42226 21.7992L9.92184 21.8199L9.92226 21.8096V21.7992H9.42226ZM9.3188 21.8871V22.3871H9.32626L9.33372 22.3869L9.3188 21.8871ZM5.64795 21.8871L5.63304 22.3869L5.6405 22.3871H5.64795V21.8871ZM5.5445 21.7992H5.0445V21.8096L5.04492 21.8199L5.5445 21.7992ZM5.64795 18.5893V19.0893H6.14795V18.5893H5.64795ZM18.2699 18.5763V18.0763H17.7699V18.5763H18.2699ZM21.9407 18.5763V18.0763V18.5763ZM22.0442 21.7992L22.5437 21.8199L22.5442 21.8096V21.7992H22.0442ZM21.9407 21.8871V22.3871H21.9482L21.9556 22.3869L21.9407 21.8871ZM18.2699 21.8871L18.2549 22.3869L18.2624 22.3871H18.2699V21.8871ZM18.1664 21.7992H17.6664V21.8096L17.6668 21.8199L18.1664 21.7992ZM18.2699 18.5893V19.0893H18.7699V18.5893H18.2699ZM11.9589 18.5763L11.9542 19.0763H11.9589V18.5763ZM15.6298 18.5763V18.0763V18.5763ZM15.7332 21.7992L16.2328 21.8199L16.2332 21.8096V21.7992H15.7332ZM15.6298 21.8871V22.3871H15.6372L15.6447 22.3869L15.6298 21.8871ZM11.9589 21.8871L11.944 22.3869L11.9514 22.3871H11.9589V21.8871ZM11.8554 21.7992H11.3554V21.8096L11.3559 21.8199L11.8554 21.7992ZM11.8554 18.6772H12.3554V18.6335L12.3478 18.5904L11.8554 18.6772ZM2.36028 39.341H1V40.341H2.36028V39.341ZM0.5 39.841V41H1.5V39.841H0.5ZM1 41.5H36.4402V40.5H1V41.5ZM36.9402 41V39.841H35.9402V41H36.9402ZM36.4402 39.341H35.6738V40.341H36.4402V39.341ZM36.1738 39.841V34.3067H35.1738V39.841H36.1738ZM36.1738 34.3067C36.1738 34.0401 36.0485 33.8044 35.8606 33.6449L35.2132 34.407C35.2007 34.3963 35.1738 34.3628 35.1738 34.3067H36.1738ZM35.8606 33.6449C35.6753 33.4874 35.439 33.4096 35.2063 33.4096V34.4096C35.2125 34.4096 35.217 34.4107 35.2193 34.4115C35.2216 34.4123 35.2189 34.4118 35.2132 34.407L35.8606 33.6449ZM35.2063 33.4096H29.9453V34.4096H35.2063V33.4096ZM29.9453 33.4096C29.7127 33.4096 29.4764 33.4874 29.291 33.6449L29.9385 34.407C29.9327 34.4118 29.9301 34.4123 29.9324 34.4115C29.9346 34.4107 29.9392 34.4096 29.9453 34.4096V33.4096ZM29.291 33.6449C29.1032 33.8044 28.9778 34.0401 28.9778 34.3067H29.9778C29.9778 34.3628 29.951 34.3963 29.9385 34.407L29.291 33.6449ZM28.9778 34.3067V39.841H29.9778V34.3067H28.9778ZM29.4778 39.341H19.5727V40.341H29.4778V39.341ZM20.0727 39.841V31.9986H19.0727V39.841H20.0727ZM20.0726 31.995C20.0705 31.6942 19.9279 31.4266 19.711 31.2435L19.0658 32.0075C19.0746 32.015 19.0764 32.0194 19.0757 32.018C19.0749 32.0163 19.0727 32.0106 19.0727 32.0022L20.0726 31.995ZM19.711 31.2435C19.4965 31.0624 19.2213 30.9712 18.9481 30.9712L18.9481 31.9712C19.0048 31.9712 19.0462 31.991 19.0658 32.0075L19.711 31.2435ZM18.9481 30.9712H8.64058V31.9712H18.9481V30.9712ZM8.64059 30.9712C8.36734 30.9712 8.09219 31.0624 7.87771 31.2435L8.52286 32.0075C8.54242 31.991 8.58384 31.9712 8.64057 31.9712L8.64059 30.9712ZM7.87771 31.2435C7.66081 31.4266 7.51818 31.6942 7.51601 31.995L8.51598 32.0022C8.51592 32.0106 8.51377 32.0163 8.51294 32.018C8.51224 32.0194 8.51404 32.015 8.52286 32.0075L7.87771 31.2435ZM7.516 31.9986V39.841H8.516V31.9986H7.516ZM8.016 39.341H1V40.341H8.016V39.341ZM1.5 39.841V1.84317H0.5V39.841H1.5ZM1.49753 1.89278C1.50483 1.81956 1.54419 1.73315 1.63551 1.65656L0.992905 0.89036C0.721667 1.11784 0.538174 1.43549 0.502468 1.79355L1.49753 1.89278ZM1.63948 1.65319C1.74498 1.56282 1.90347 1.50087 2.08301 1.49999L2.07811 0.500006C1.6817 0.501949 1.28903 0.636672 0.988935 0.893725L1.63948 1.65319ZM2.08056 1.5H25.4966V0.5H2.08056V1.5ZM25.4954 1.5C25.5824 1.50021 25.6671 1.51513 25.7439 1.54254L26.08 0.600703C25.8938 0.534245 25.6961 0.500479 25.4978 0.500001L25.4954 1.5ZM25.7439 1.54254C25.8208 1.56995 25.8857 1.60837 25.9366 1.65225L26.5893 0.89467C26.4399 0.765942 26.2662 0.667157 26.08 0.600703L25.7439 1.54254ZM25.9392 1.6545L25.989 1.69682L26.6365 0.934738L26.5867 0.892417L25.9392 1.6545ZM25.9683 1.67819C26.0559 1.76147 26.0888 1.85264 26.0887 1.93022L27.0887 1.93191C27.0893 1.55556 26.9257 1.20853 26.6572 0.953377L25.9683 1.67819ZM26.0887 1.93107V12.2509H27.0887V1.93107H26.0887ZM26.5887 12.7509H40.0842V11.7509H26.5887V12.7509ZM40.0842 12.7509C40.1491 12.7509 40.212 12.7618 40.2687 12.7818L40.6006 11.8385C40.4351 11.7802 40.2598 11.7509 40.0842 11.7509L40.0842 12.7509ZM40.2687 12.7818C40.3254 12.8017 40.3722 12.8294 40.408 12.8598L41.0555 12.0978C40.9213 11.9837 40.7662 11.8967 40.6006 11.8385L40.2687 12.7818ZM40.41 12.8615C40.4453 12.8912 40.468 12.922 40.4815 12.9496L41.3794 12.5092C41.3008 12.349 41.1885 12.2095 41.0535 12.0961L40.41 12.8615ZM40.4815 12.9496C40.4948 12.9767 40.5 13.0021 40.5 13.0251L41.5 13.0263C41.5002 12.8459 41.4581 12.6699 41.3794 12.5092L40.4815 12.9496ZM40.5 13.0257V40.4661H41.5V13.0257H40.5ZM40.5 40.4661C40.5 40.4577 40.5021 40.4519 40.503 40.4501C40.5038 40.4485 40.5021 40.4528 40.4933 40.4603L41.1408 41.2224C41.3581 41.0377 41.5 40.7682 41.5 40.4661H40.5ZM40.4933 40.4603C40.4739 40.4768 40.4324 40.4967 40.3754 40.4967V41.4967C40.6497 41.4967 40.926 41.4049 41.1408 41.2224L40.4933 40.4603ZM40.3754 40.4967H36.4402V41.4967H40.3754V40.4967ZM36.9402 40.9967V39.8378H35.9402V40.9967H36.9402ZM36.4402 40.3378H39.701V39.3378H36.4402V40.3378ZM40.201 39.8378V13.3675H39.201V39.8378H40.201ZM39.701 12.8675H26.5925V13.8675H39.701V12.8675ZM26.0925 13.3675V39.8476H27.0925V13.3675H26.0925ZM26.5925 39.3476H25.2284V40.3476H26.5925V39.3476ZM25.7284 39.8476V2.15569H24.7284V39.8476H25.7284ZM25.2284 1.65569H2.36028V2.65569H25.2284V1.65569ZM1.86028 2.15569V39.841H2.86028V2.15569H1.86028ZM34.7542 39.341H30.4128V40.341H34.7542V39.341ZM30.9128 39.841V34.6909H29.9128V39.841H30.9128ZM30.4128 35.1909H34.7542V34.1909H30.4128V35.1909ZM34.2542 34.6909V39.841H35.2542V34.6909H34.2542ZM33.7426 16.1464H37.1184V15.1464H33.7426V16.1464ZM37.1184 16.1464C36.9175 16.1464 36.7943 16.0266 36.7435 15.9539C36.6891 15.876 36.6682 15.7921 36.6682 15.718H37.6682C37.6682 15.6048 37.6359 15.4851 37.5632 15.3811C37.4942 15.2824 37.3461 15.1464 37.1184 15.1464V16.1464ZM36.6682 15.718V17.5769H37.6682V15.718H36.6682ZM36.6682 17.5769C36.6682 17.4847 36.6975 17.4027 36.7435 17.3368C36.7821 17.2816 36.9022 17.1452 37.1184 17.1452V18.1452C37.3614 18.1452 37.5064 17.9909 37.5632 17.9097C37.6274 17.8178 37.6682 17.7016 37.6682 17.5769H36.6682ZM37.1184 17.1452H33.7426V18.1452H37.1184V17.1452ZM33.7426 17.1452C33.9227 17.1452 34.0467 17.244 34.1085 17.3269C34.1709 17.4106 34.1928 17.5013 34.1928 17.5769H33.1928C33.1928 17.6915 33.2262 17.8164 33.3068 17.9245C33.3867 18.0318 33.5357 18.1452 33.7426 18.1452V17.1452ZM34.1928 17.5769V15.718H33.1928V17.5769H34.1928ZM34.1928 15.718C34.1928 15.7921 34.1719 15.876 34.1175 15.9539C34.0667 16.0266 33.9435 16.1464 33.7426 16.1464V15.1464C33.5149 15.1464 33.3668 15.2824 33.2978 15.3811C33.2252 15.4851 33.1928 15.6048 33.1928 15.718H34.1928ZM33.7426 29.038H37.1184V28.038H33.7426V29.038ZM37.1184 29.038C36.9196 29.038 36.7979 28.9206 36.7479 28.8513C36.6938 28.7763 36.6682 28.6905 36.6682 28.6064H37.6682C37.6682 28.4865 37.6312 28.3665 37.5589 28.2663C37.4907 28.1717 37.344 28.038 37.1184 28.038V29.038ZM36.6682 28.6064V30.4653H37.6682V28.6064H36.6682ZM36.6682 30.4653C36.6682 30.3833 36.6924 30.3035 36.7395 30.234C36.779 30.1757 36.9 30.0369 37.1184 30.0369V31.0369C37.3636 31.0369 37.5096 30.8802 37.5673 30.795C37.6325 30.6987 37.6682 30.5831 37.6682 30.4653H36.6682ZM37.1184 30.0369H33.7426V31.0369H37.1184V30.0369ZM33.7426 30.0369C33.9435 30.0369 34.0667 30.1566 34.1175 30.2293C34.1719 30.3072 34.1928 30.3912 34.1928 30.4653H33.1928C33.1928 30.5785 33.2252 30.6982 33.2978 30.8022C33.3668 30.9009 33.5149 31.0369 33.7426 31.0369V30.0369ZM34.1928 30.4653V28.6064H33.1928V30.4653H34.1928ZM34.1928 28.6064C34.1928 28.6905 34.1672 28.7763 34.1131 28.8513C34.0631 28.9206 33.9414 29.038 33.7426 29.038V28.038C33.517 28.038 33.3703 28.1717 33.3021 28.2663C33.2298 28.3665 33.1928 28.4865 33.1928 28.6064H34.1928ZM28.0524 29.038H31.4244V28.038H28.0524V29.038ZM31.4244 29.038C31.2489 29.038 31.1265 28.9428 31.0645 28.8612C31.0039 28.7814 30.978 28.6907 30.978 28.6064H31.978C31.978 28.4863 31.9406 28.3614 31.8609 28.2564C31.7797 28.1496 31.6305 28.038 31.4244 28.038V29.038ZM30.978 28.6064V30.4653H31.978V28.6064H30.978ZM30.978 30.4653C30.978 30.3831 31.0025 30.2987 31.0557 30.2241C31.1079 30.151 31.2299 30.0369 31.4244 30.0369V31.0369C31.6495 31.0369 31.7984 30.9049 31.8697 30.8049C31.9421 30.7035 31.978 30.5833 31.978 30.4653H30.978ZM31.4244 30.0369H28.0524V31.0369H31.4244V30.0369ZM28.0524 30.0369C28.2296 30.0369 28.354 30.134 28.4168 30.2195C28.4778 30.3023 28.4988 30.3913 28.4988 30.4653H27.4988C27.4988 30.5784 27.5313 30.7032 27.6113 30.812C27.6933 30.9235 27.8445 31.0369 28.0524 31.0369V30.0369ZM28.4988 30.4653V28.6064H27.4988V30.4653H28.4988ZM28.4988 28.6064C28.4988 28.6907 28.4729 28.7814 28.4123 28.8612C28.3503 28.9428 28.2279 29.038 28.0524 29.038V28.038C27.8463 28.038 27.697 28.1496 27.6159 28.2564C27.5361 28.3615 27.4988 28.4863 27.4988 28.6064H28.4988ZM33.7426 24.7408H37.1184V23.7408H33.7426V24.7408ZM37.1184 24.7408C36.9175 24.7408 36.7943 24.6211 36.7435 24.5484C36.6891 24.4705 36.6682 24.3866 36.6682 24.3124H37.6682C37.6682 24.1993 37.6359 24.0795 37.5632 23.9756C37.4942 23.8768 37.3461 23.7408 37.1184 23.7408V24.7408ZM36.6682 24.3124V26.1713H37.6682V24.3124H36.6682ZM36.6682 26.1713C36.6682 26.0893 36.6924 26.0095 36.7395 25.9401C36.779 25.8818 36.9 25.7429 37.1184 25.7429V26.7429C37.3636 26.7429 37.5096 26.5862 37.5673 26.5011C37.6325 26.4047 37.6682 26.2891 37.6682 26.1713H36.6682ZM37.1184 25.7429H33.7426V26.7429H37.1184V25.7429ZM33.7426 25.7429C33.9435 25.7429 34.0667 25.8627 34.1175 25.9354C34.1719 26.0133 34.1928 26.0972 34.1928 26.1713H33.1928C33.1928 26.2845 33.2252 26.4042 33.2978 26.5082C33.3668 26.6069 33.5149 26.7429 33.7426 26.7429V25.7429ZM34.1928 26.1713V24.3124H33.1928V26.1713H34.1928ZM34.1928 24.3124C34.1928 24.3783 34.1752 24.4672 34.1131 24.5533C34.0507 24.6398 33.9247 24.7408 33.7426 24.7408V23.7408C33.5337 23.7408 33.3828 23.8565 33.3021 23.9683C33.2219 24.0795 33.1928 24.2042 33.1928 24.3124H34.1928ZM33.7426 20.4436H37.1184V19.4436H33.7426V20.4436ZM37.1184 20.4436C36.9175 20.4436 36.7943 20.3239 36.7435 20.2512C36.6891 20.1733 36.6682 20.0893 36.6682 20.0152H37.6682C37.6682 19.902 37.6359 19.7823 37.5632 19.6783C37.4942 19.5796 37.3461 19.4436 37.1184 19.4436V20.4436ZM36.6682 20.0152V21.8741H37.6682V20.0152H36.6682ZM36.6682 21.8741C36.6682 21.7921 36.6924 21.7123 36.7395 21.6428C36.779 21.5845 36.9 21.4457 37.1184 21.4457V22.4457C37.3636 22.4457 37.5096 22.289 37.5673 22.2038C37.6325 22.1075 37.6682 21.9919 37.6682 21.8741H36.6682ZM37.1184 21.4457H33.7426V22.4457H37.1184V21.4457ZM33.7426 21.4457C33.9435 21.4457 34.0667 21.5654 34.1175 21.6381C34.1719 21.716 34.1928 21.8 34.1928 21.8741H33.1928C33.1928 21.9873 33.2252 22.107 33.2978 22.211C33.3668 22.3097 33.5149 22.4457 33.7426 22.4457V21.4457ZM34.1928 21.8741V20.0152H33.1928V21.8741H34.1928ZM34.1928 20.0152C34.1928 20.0893 34.1719 20.1733 34.1175 20.2512C34.0667 20.3239 33.9435 20.4436 33.7426 20.4436V19.4436C33.5149 19.4436 33.3668 19.5796 33.2978 19.6783C33.2252 19.7823 33.1928 19.902 33.1928 20.0152H34.1928ZM28.0524 16.1464H31.4244V15.1464H28.0524V16.1464ZM31.4244 16.1464C31.2472 16.1464 31.1228 16.0493 31.0599 15.9638C30.999 15.881 30.978 15.792 30.978 15.718H31.978C31.978 15.6049 31.9455 15.4801 31.8654 15.3712C31.7834 15.2598 31.6322 15.1464 31.4244 15.1464V16.1464ZM30.978 15.718V17.5769H31.978V15.718H30.978ZM30.978 17.5769C30.978 17.4841 31.0078 17.3979 31.0599 17.327C31.1112 17.2573 31.2317 17.1452 31.4244 17.1452V18.1452C31.6477 18.1452 31.795 18.0153 31.8654 17.9196C31.9368 17.8226 31.978 17.7021 31.978 17.5769H30.978ZM31.4244 17.1452H28.0524V18.1452H31.4244V17.1452ZM28.0524 17.1452C28.2095 17.1452 28.3345 17.2241 28.4074 17.317C28.4767 17.4054 28.4988 17.5014 28.4988 17.5769H27.4988C27.4988 17.7724 27.6395 18.1452 28.0524 18.1452V17.1452ZM28.4988 17.5769V15.718H27.4988V17.5769H28.4988ZM28.4988 15.718C28.4988 15.792 28.4778 15.881 28.4168 15.9638C28.354 16.0492 28.2296 16.1464 28.0524 16.1464V15.1464C27.8445 15.1464 27.6933 15.2598 27.6113 15.3713C27.5313 15.4801 27.4988 15.6049 27.4988 15.718H28.4988ZM28.0524 24.7408H31.4244V23.7408H28.0524V24.7408ZM31.4244 24.7408C31.2472 24.7408 31.1228 24.6437 31.0599 24.5583C30.999 24.4755 30.978 24.3865 30.978 24.3124H31.978C31.978 24.1993 31.9455 24.0745 31.8654 23.9657C31.7834 23.8542 31.6322 23.7408 31.4244 23.7408V24.7408ZM30.978 24.3124V26.1713H31.978V24.3124H30.978ZM30.978 26.1713C30.978 26.0891 31.0025 26.0047 31.0557 25.9302C31.1079 25.857 31.2299 25.7429 31.4244 25.7429V26.7429C31.6495 26.7429 31.7984 26.611 31.8697 26.5109C31.9421 26.4096 31.978 26.2893 31.978 26.1713H30.978ZM31.4244 25.7429H28.0524V26.7429H31.4244V25.7429ZM28.0524 25.7429C28.2296 25.7429 28.354 25.8401 28.4168 25.9255C28.4778 26.0083 28.4988 26.0973 28.4988 26.1713H27.4988C27.4988 26.2844 27.5313 26.4092 27.6113 26.5181C27.6933 26.6295 27.8445 26.7429 28.0524 26.7429V25.7429ZM28.4988 26.1713V24.3124H27.4988V26.1713H28.4988ZM28.4988 24.3124C28.4988 24.3779 28.4812 24.4724 28.4123 24.5631C28.3386 24.6602 28.2111 24.7408 28.0524 24.7408V23.7408C27.6265 23.7408 27.4988 24.1305 27.4988 24.3124H28.4988ZM28.0524 20.4436H31.4244V19.4436H28.0524V20.4436ZM31.4244 20.4436C31.2472 20.4436 31.1228 20.3465 31.0599 20.2611C30.999 20.1783 30.978 20.0893 30.978 20.0152H31.978C31.978 19.9021 31.9455 19.7773 31.8654 19.6685C31.7834 19.557 31.6322 19.4436 31.4244 19.4436V20.4436ZM30.978 20.0152V21.8741H31.978V20.0152H30.978ZM30.978 21.8741C30.978 21.7919 31.0025 21.7075 31.0557 21.633C31.1079 21.5598 31.2299 21.4457 31.4244 21.4457V22.4457C31.6495 22.4457 31.7984 22.3137 31.8697 22.2137C31.9421 22.1123 31.978 21.9921 31.978 21.8741H30.978ZM31.4244 21.4457H28.0524V22.4457H31.4244V21.4457ZM28.0524 21.4457C28.2296 21.4457 28.354 21.5428 28.4168 21.6283C28.4778 21.7111 28.4988 21.8001 28.4988 21.8741H27.4988C27.4988 21.9872 27.5313 22.112 27.6113 22.2208C27.6933 22.3323 27.8445 22.4457 28.0524 22.4457V21.4457ZM28.4988 21.8741V20.0152H27.4988V21.8741H28.4988ZM28.4988 20.0152C28.4988 20.0892 28.4778 20.1782 28.4168 20.261C28.354 20.3465 28.2296 20.4436 28.0524 20.4436V19.4436C27.8445 19.4436 27.6933 19.557 27.6113 19.6685C27.5313 19.7773 27.4988 19.9021 27.4988 20.0152H28.4988ZM18.3235 39.341H9.26516V40.341H18.3235V39.341ZM9.76516 39.841V32.5293H8.76516V39.841H9.76516ZM9.26516 33.0293H18.3235V32.0293H9.26516V33.0293ZM17.8235 32.5293V39.841H18.8235V32.5293H17.8235ZM5.64795 5.5726H9.3188V4.5726H5.64795V5.5726ZM9.30389 5.57237C9.22701 5.57008 9.14137 5.54333 9.06717 5.48028L9.71464 4.71819C9.60204 4.62253 9.46487 4.57673 9.33372 4.57282L9.30389 5.57237ZM9.06717 5.48028C8.99092 5.41551 8.92806 5.31115 8.92269 5.18115L9.92184 5.13984C9.91456 4.96373 9.82928 4.8156 9.71464 4.71819L9.06717 5.48028ZM8.92226 5.16049V8.28249H9.92226V5.16049H8.92226ZM8.92269 8.26184C8.92806 8.13184 8.99092 8.02748 9.06717 7.9627L9.71464 8.72479C9.82928 8.62739 9.91456 8.47926 9.92184 8.30314L8.92269 8.26184ZM9.06717 7.9627C9.14137 7.89966 9.22701 7.87291 9.30389 7.87061L9.33372 8.87017C9.46487 8.86626 9.60204 8.82046 9.71464 8.72479L9.06717 7.9627ZM9.3188 7.87039H5.64795V8.87039H9.3188V7.87039ZM5.66287 7.87061C5.73975 7.87291 5.82539 7.89966 5.89959 7.9627L5.25212 8.72479C5.36472 8.82046 5.50189 8.86626 5.63304 8.87017L5.66287 7.87061ZM5.89959 7.9627C5.97583 8.02747 6.0387 8.13182 6.04407 8.26184L5.04492 8.30314C5.0522 8.47927 5.13749 8.6274 5.25212 8.72479L5.89959 7.9627ZM6.0445 8.28249V5.16049H5.0445V8.28249H6.0445ZM6.04407 5.18115C6.0387 5.31116 5.97583 5.41552 5.89959 5.48028L5.25212 4.71819C5.13749 4.81559 5.0522 4.96372 5.04492 5.13984L6.04407 5.18115ZM5.89959 5.48028C5.82539 5.54333 5.73975 5.57008 5.66287 5.57237L5.63304 4.57282C5.50189 4.57673 5.36472 4.62253 5.25212 4.71819L5.89959 5.48028ZM18.2699 5.5726H21.9407V4.5726H18.2699V5.5726ZM21.9258 5.57237C21.8489 5.57008 21.7633 5.54332 21.6891 5.48028L22.3365 4.71819C22.2239 4.62253 22.0868 4.57673 21.9556 4.57282L21.9258 5.57237ZM21.6891 5.48028C21.6128 5.41552 21.55 5.31116 21.5446 5.18115L22.5437 5.13984C22.5365 4.96372 22.4512 4.81559 22.3365 4.71819L21.6891 5.48028ZM21.5442 5.16049V8.28249H22.5442V5.16049H21.5442ZM21.5446 8.26184C21.55 8.13182 21.6128 8.02747 21.6891 7.9627L22.3365 8.72479C22.4512 8.6274 22.5365 8.47927 22.5437 8.30314L21.5446 8.26184ZM21.6891 7.9627C21.7633 7.89967 21.8489 7.87291 21.9258 7.87061L21.9556 8.87017C22.0868 8.86626 22.2239 8.82045 22.3365 8.72479L21.6891 7.9627ZM21.9407 7.87039H18.2699V8.87039H21.9407V7.87039ZM18.2848 7.87061C18.3616 7.87291 18.4473 7.89966 18.5215 7.9627L17.874 8.72479C17.9866 8.82046 18.1238 8.86626 18.2549 8.87017L18.2848 7.87061ZM18.5215 7.9627C18.5977 8.02747 18.6606 8.13182 18.666 8.26184L17.6668 8.30314C17.6741 8.47927 17.7594 8.6274 17.874 8.72479L18.5215 7.9627ZM18.6664 8.28249V5.16049H17.6664V8.28249H18.6664ZM18.666 5.18115C18.6606 5.31116 18.5977 5.41552 18.5215 5.48028L17.874 4.71819C17.7594 4.81559 17.6741 4.96372 17.6668 5.13984L18.666 5.18115ZM18.5215 5.48028C18.4473 5.54333 18.3616 5.57008 18.2848 5.57237L18.2549 4.57282C18.1238 4.57673 17.9866 4.62253 17.874 4.71819L18.5215 5.48028ZM11.9589 5.5726H15.6298V4.5726H11.9589V5.5726ZM15.6148 5.57237C15.538 5.57008 15.4523 5.54333 15.3781 5.48028L16.0256 4.71819C15.913 4.62253 15.7758 4.57673 15.6447 4.57282L15.6148 5.57237ZM15.3781 5.48028C15.3019 5.41551 15.239 5.31115 15.2336 5.18115L16.2328 5.13984C16.2255 4.96373 16.1402 4.8156 16.0256 4.71819L15.3781 5.48028ZM15.2332 5.16049V8.28249H16.2332V5.16049H15.2332ZM15.2336 8.26184C15.239 8.13184 15.3019 8.02748 15.3781 7.9627L16.0256 8.72479C16.1402 8.62739 16.2255 8.47926 16.2328 8.30314L15.2336 8.26184ZM15.3781 7.9627C15.4523 7.89966 15.538 7.87291 15.6148 7.87061L15.6447 8.87017C15.7758 8.86626 15.913 8.82046 16.0256 8.72479L15.3781 7.9627ZM15.6298 7.87039H11.9589V8.87039H15.6298V7.87039ZM11.9738 7.87061C12.0507 7.87291 12.1363 7.89966 12.2105 7.9627L11.5631 8.72479C11.6757 8.82046 11.8128 8.86626 11.944 8.87017L11.9738 7.87061ZM12.2105 7.9627C12.2868 8.02747 12.3496 8.13182 12.355 8.26184L11.3559 8.30314C11.3632 8.47927 11.4484 8.6274 11.5631 8.72479L12.2105 7.9627ZM12.3554 8.28249V5.16049H11.3554V8.28249H12.3554ZM12.355 5.18115C12.3496 5.31116 12.2868 5.41552 12.2105 5.48028L11.5631 4.71819C11.4484 4.81559 11.3632 4.96372 11.3559 5.13984L12.355 5.18115ZM12.2105 5.48028C12.1363 5.54333 12.0507 5.57008 11.9738 5.57237L11.944 4.57282C11.8128 4.57673 11.6757 4.62253 11.5631 4.71819L12.2105 5.48028ZM5.64795 12.331H9.3188V11.331H5.64795V12.331ZM9.30389 12.3307C9.227 12.3284 9.14136 12.3017 9.06717 12.2386L9.71464 11.4766C9.60205 11.3809 9.46488 11.3351 9.33372 11.3312L9.30389 12.3307ZM9.06717 12.2386C8.99093 12.1739 8.92806 12.0695 8.92269 11.9395L9.92184 11.8982C9.91456 11.7221 9.82928 11.574 9.71464 11.4766L9.06717 12.2386ZM8.92226 11.9189V15.0409H9.92226V11.9189H8.92226ZM8.92269 15.0202C8.92806 14.8902 8.99092 14.7858 9.06717 14.7211L9.71464 15.4832C9.82929 15.3858 9.91456 15.2376 9.92184 15.0615L8.92269 15.0202ZM9.06717 14.7211C9.14138 14.658 9.22703 14.6313 9.30389 14.629L9.33372 15.6285C9.46485 15.6246 9.60203 15.5788 9.71464 15.4832L9.06717 14.7211ZM9.3188 14.6288H5.64795V15.6288H9.3188V14.6288ZM5.66287 14.629C5.73973 14.6313 5.82538 14.658 5.89959 14.7211L5.25212 15.4832C5.36473 15.5788 5.50191 15.6246 5.63304 15.6285L5.66287 14.629ZM5.89959 14.7211C5.97583 14.7858 6.0387 14.8902 6.04407 15.0202L5.04492 15.0615C5.0522 15.2376 5.13748 15.3858 5.25212 15.4832L5.89959 14.7211ZM6.0445 15.0409V11.9189H5.0445V15.0409H6.0445ZM6.04407 11.9395C6.0387 12.0695 5.97582 12.1739 5.89959 12.2386L5.25212 11.4766C5.13749 11.5739 5.0522 11.7221 5.04492 11.8982L6.04407 11.9395ZM5.89959 12.2386C5.8254 12.3017 5.73976 12.3284 5.66287 12.3307L5.63304 11.3312C5.50188 11.3351 5.36471 11.3809 5.25212 11.4766L5.89959 12.2386ZM18.2699 12.331H21.9407V11.331H18.2699V12.331ZM21.9258 12.3307C21.8489 12.3284 21.7633 12.3017 21.6891 12.2386L22.3365 11.4766C22.224 11.3809 22.0868 11.3351 21.9556 11.3312L21.9258 12.3307ZM21.6891 12.2386C21.6128 12.1739 21.55 12.0695 21.5446 11.9395L22.5437 11.8982C22.5365 11.7221 22.4512 11.5739 22.3365 11.4766L21.6891 12.2386ZM21.5442 11.9189V15.0409H22.5442V11.9189H21.5442ZM21.5446 15.0202C21.55 14.8902 21.6128 14.7858 21.6891 14.7211L22.3365 15.4832C22.4512 15.3858 22.5365 15.2376 22.5437 15.0615L21.5446 15.0202ZM21.6891 14.7211C21.7633 14.658 21.8489 14.6313 21.9258 14.629L21.9556 15.6285C22.0868 15.6246 22.2239 15.5788 22.3365 15.4832L21.6891 14.7211ZM21.9407 14.6288H18.2699V15.6288H21.9407V14.6288ZM18.2848 14.629C18.3616 14.6313 18.4473 14.658 18.5215 14.7211L17.874 15.4832C17.9866 15.5788 18.1238 15.6246 18.2549 15.6285L18.2848 14.629ZM18.5215 14.7211C18.5977 14.7858 18.6606 14.8902 18.666 15.0202L17.6668 15.0615C17.6741 15.2376 17.7594 15.3858 17.874 15.4832L18.5215 14.7211ZM18.6664 15.0409V11.9189H17.6664V15.0409H18.6664ZM18.666 11.9395C18.6606 12.0695 18.5977 12.1739 18.5215 12.2386L17.874 11.4766C17.7594 11.5739 17.6741 11.7221 17.6668 11.8982L18.666 11.9395ZM18.5215 12.2386C18.4473 12.3017 18.3617 12.3284 18.2848 12.3307L18.2549 11.3312C18.1238 11.3351 17.9866 11.3809 17.874 11.4766L18.5215 12.2386ZM11.9589 12.331H15.6298V11.331H11.9589V12.331ZM15.6148 12.3307C15.538 12.3284 15.4523 12.3017 15.3781 12.2386L16.0256 11.4766C15.913 11.3809 15.7758 11.3351 15.6447 11.3312L15.6148 12.3307ZM15.3781 12.2386C15.3019 12.1739 15.239 12.0695 15.2336 11.9395L16.2328 11.8982C16.2255 11.7221 16.1402 11.574 16.0256 11.4766L15.3781 12.2386ZM15.2332 11.9189V15.0409H16.2332V11.9189H15.2332ZM15.2336 15.0202C15.239 14.8902 15.3019 14.7858 15.3781 14.7211L16.0256 15.4832C16.1402 15.3858 16.2255 15.2376 16.2328 15.0615L15.2336 15.0202ZM15.3781 14.7211C15.4523 14.658 15.538 14.6313 15.6148 14.629L15.6447 15.6285C15.7758 15.6246 15.913 15.5788 16.0256 15.4832L15.3781 14.7211ZM15.6298 14.6288H11.9589V15.6288H15.6298V14.6288ZM11.9738 14.629C12.0507 14.6313 12.1363 14.658 12.2105 14.7211L11.5631 15.4832C11.6757 15.5788 11.8129 15.6246 11.944 15.6285L11.9738 14.629ZM12.2105 14.7211C12.2868 14.7858 12.3496 14.8902 12.355 15.0202L11.3559 15.0615C11.3632 15.2376 11.4484 15.3858 11.5631 15.4832L12.2105 14.7211ZM12.3554 15.0409V11.9189H11.3554V15.0409H12.3554ZM12.355 11.9395C12.3496 12.0695 12.2868 12.1739 12.2105 12.2386L11.5631 11.4766C11.4484 11.5739 11.3632 11.7221 11.3559 11.8982L12.355 11.9395ZM12.2105 12.2386C12.1363 12.3017 12.0507 12.3284 11.9738 12.3307L11.944 11.3312C11.8128 11.3351 11.6757 11.3809 11.5631 11.4766L12.2105 12.2386ZM5.64795 25.8477H9.3188V24.8477H5.64795V25.8477ZM9.3188 25.8477C9.2376 25.8477 9.14653 25.821 9.06823 25.7545L9.7157 24.9924C9.59859 24.8929 9.45488 24.8477 9.3188 24.8477L9.3188 25.8477ZM9.06823 25.7545C8.98745 25.6858 8.92226 25.5736 8.92226 25.4356H9.92226C9.92226 25.2509 9.83528 25.094 9.7157 24.9924L9.06823 25.7545ZM8.92226 25.4356V28.5543H9.92226V25.4356H8.92226ZM8.92226 28.5543C8.92226 28.4163 8.98746 28.3041 9.06823 28.2354L9.7157 28.9975C9.83527 28.8959 9.92226 28.739 9.92226 28.5543H8.92226ZM9.06823 28.2354C9.14653 28.1689 9.2376 28.1422 9.3188 28.1422V29.1422C9.45488 29.1422 9.59859 29.097 9.7157 28.9975L9.06823 28.2354ZM9.3188 28.1422H5.64795V29.1422H9.3188V28.1422ZM5.64795 28.1422C5.72916 28.1422 5.82023 28.1689 5.89853 28.2354L5.25106 28.9975C5.36817 29.097 5.51188 29.1422 5.64795 29.1422L5.64795 28.1422ZM5.89853 28.2354C5.97929 28.304 6.0445 28.4163 6.0445 28.5543H5.0445C5.0445 28.739 5.13151 28.8959 5.25106 28.9975L5.89853 28.2354ZM6.0445 28.5543V25.4356H5.0445V28.5543H6.0445ZM6.0445 25.4356C6.0445 25.5736 5.9793 25.6859 5.89853 25.7545L5.25106 24.9924C5.1315 25.094 5.0445 25.2509 5.0445 25.4356H6.0445ZM5.89853 25.7545C5.82023 25.821 5.72916 25.8477 5.64795 25.8477V24.8477C5.51188 24.8477 5.36817 24.8929 5.25106 24.9924L5.89853 25.7545ZM18.2699 25.8477H21.9407V24.8477H18.2699V25.8477ZM21.9407 25.8477C21.8595 25.8477 21.7684 25.821 21.6901 25.7545L22.3376 24.9924C22.2205 24.8929 22.0768 24.8477 21.9407 24.8477L21.9407 25.8477ZM21.6901 25.7545C21.6093 25.6858 21.5442 25.5736 21.5442 25.4356H22.5442C22.5442 25.2509 22.4572 25.094 22.3376 24.9924L21.6901 25.7545ZM21.5442 25.4356V28.5543H22.5442V25.4356H21.5442ZM21.5442 28.5543C21.5442 28.4163 21.6093 28.3041 21.6901 28.2354L22.3376 28.9975C22.4572 28.8959 22.5442 28.739 22.5442 28.5543L21.5442 28.5543ZM21.6901 28.2354C21.7684 28.1689 21.8595 28.1422 21.9407 28.1422V29.1422C22.0768 29.1422 22.2205 29.097 22.3376 28.9975L21.6901 28.2354ZM21.9407 28.1422H18.2699V29.1422H21.9407V28.1422ZM18.2699 28.1422C18.3511 28.1422 18.4421 28.1689 18.5204 28.2354L17.873 28.9975C17.9901 29.097 18.1338 29.1422 18.2699 29.1422L18.2699 28.1422ZM18.5204 28.2354C18.6012 28.304 18.6664 28.4163 18.6664 28.5543H17.6664C17.6664 28.739 17.7534 28.8959 17.873 28.9975L18.5204 28.2354ZM18.6664 28.5543V25.4356H17.6664V28.5543H18.6664ZM18.6664 25.4356C18.6664 25.5736 18.6012 25.6859 18.5204 25.7545L17.873 24.9924C17.7534 25.094 17.6664 25.2509 17.6664 25.4356H18.6664ZM18.5204 25.7545C18.4421 25.821 18.3511 25.8477 18.2699 25.8477V24.8477C18.1338 24.8477 17.9901 24.8929 17.873 24.9924L18.5204 25.7545ZM11.9589 25.8477H15.6298V24.8477H11.9589V25.8477ZM15.6298 25.8477C15.5486 25.8477 15.4575 25.821 15.3792 25.7545L16.0266 24.9924C15.9095 24.8929 15.7658 24.8477 15.6298 24.8477L15.6298 25.8477ZM15.3792 25.7545C15.2984 25.6858 15.2332 25.5736 15.2332 25.4356H16.2332C16.2332 25.2509 16.1462 25.094 16.0266 24.9924L15.3792 25.7545ZM15.2332 25.4356V28.5543H16.2332V25.4356H15.2332ZM15.2332 28.5543C15.2332 28.4163 15.2984 28.3041 15.3792 28.2354L16.0266 28.9975C16.1462 28.8959 16.2332 28.739 16.2332 28.5543L15.2332 28.5543ZM15.3792 28.2354C15.4575 28.1689 15.5486 28.1422 15.6298 28.1422V29.1422C15.7658 29.1422 15.9095 29.097 16.0266 28.9975L15.3792 28.2354ZM15.6298 28.1422H11.9589V29.1422H15.6298V28.1422ZM11.9589 28.1422C12.0401 28.1422 12.1312 28.1689 12.2095 28.2354L11.562 28.9975C11.6791 29.097 11.8228 29.1422 11.9589 29.1422L11.9589 28.1422ZM12.2095 28.2354C12.2902 28.304 12.3554 28.4163 12.3554 28.5543H11.3554C11.3554 28.739 11.4425 28.8959 11.562 28.9975L12.2095 28.2354ZM12.3554 28.5543V25.4356H11.3554V28.5543H12.3554ZM12.3554 25.4356C12.3554 25.5736 12.2903 25.6859 12.2095 25.7545L11.562 24.9924C11.4424 25.094 11.3554 25.2509 11.3554 25.4356H12.3554ZM12.2095 25.7545C12.1312 25.821 12.0401 25.8477 11.9589 25.8477V24.8477C11.8228 24.8477 11.6791 24.8929 11.562 24.9924L12.2095 25.7545ZM5.64795 19.0763H9.3188V18.0763H5.64795V19.0763ZM9.3188 19.0763C9.23758 19.0763 9.14651 19.0496 9.06823 18.9831L9.7157 18.221C9.59861 18.1215 9.45491 18.0763 9.3188 18.0763L9.3188 19.0763ZM9.06823 18.9831C8.98745 18.9145 8.92226 18.8022 8.92226 18.6642H9.92226C9.92226 18.4795 9.83528 18.3226 9.7157 18.221L9.06823 18.9831ZM8.92226 18.6642V21.7992H9.92226V18.6642H8.92226ZM8.92269 21.7786C8.92806 21.6486 8.99093 21.5442 9.06717 21.4794L9.71464 22.2415C9.82928 22.1441 9.91456 21.996 9.92184 21.8199L8.92269 21.7786ZM9.06717 21.4794C9.14139 21.4164 9.22704 21.3896 9.30389 21.3873L9.33372 22.3869C9.46484 22.383 9.60202 22.3372 9.71464 22.2415L9.06717 21.4794ZM9.3188 21.3871H5.64795V22.3871H9.3188V21.3871ZM5.66287 21.3873C5.73972 21.3896 5.82537 21.4164 5.89959 21.4794L5.25212 22.2415C5.36474 22.3372 5.50192 22.383 5.63304 22.3869L5.66287 21.3873ZM5.89959 21.4794C5.97582 21.5442 6.03869 21.6485 6.04407 21.7786L5.04492 21.8199C5.0522 21.996 5.13749 22.1441 5.25212 22.2415L5.89959 21.4794ZM6.0445 21.7992V18.6772H5.0445V21.7992H6.0445ZM6.0445 18.6772C6.0445 18.8153 5.97931 18.9275 5.89853 18.9961L5.25106 18.234C5.13149 18.3356 5.0445 18.4926 5.0445 18.6772H6.0445ZM5.89853 18.9961C5.82025 19.0626 5.72918 19.0893 5.64795 19.0893V18.0893C5.51185 18.0893 5.36815 18.1345 5.25106 18.234L5.89853 18.9961ZM6.14795 18.5893V18.5763H5.14795V18.5893H6.14795ZM18.2699 19.0763H21.9407V18.0763H18.2699V19.0763ZM21.9407 19.0763C21.8595 19.0763 21.7684 19.0496 21.6901 18.9831L22.3376 18.221C22.2205 18.1215 22.0768 18.0763 21.9407 18.0763L21.9407 19.0763ZM21.6901 18.9831C21.6093 18.9145 21.5442 18.8022 21.5442 18.6642H22.5442C22.5442 18.4796 22.4572 18.3226 22.3376 18.221L21.6901 18.9831ZM21.5442 18.6642V21.7992H22.5442V18.6642H21.5442ZM21.5446 21.7786C21.55 21.6485 21.6128 21.5442 21.6891 21.4794L22.3365 22.2415C22.4512 22.1441 22.5365 21.996 22.5437 21.8199L21.5446 21.7786ZM21.6891 21.4794C21.7633 21.4164 21.8489 21.3896 21.9258 21.3873L21.9556 22.3869C22.0868 22.383 22.2239 22.3372 22.3365 22.2415L21.6891 21.4794ZM21.9407 21.3871H18.2699V22.3871H21.9407V21.3871ZM18.2848 21.3873C18.3616 21.3896 18.4473 21.4164 18.5215 21.4794L17.874 22.2415C17.9866 22.3372 18.1238 22.383 18.2549 22.3869L18.2848 21.3873ZM18.5215 21.4794C18.5977 21.5442 18.6606 21.6485 18.666 21.7786L17.6668 21.8199C17.6741 21.996 17.7594 22.1441 17.874 22.2415L18.5215 21.4794ZM18.6664 21.7992V18.6772H17.6664V21.7992H18.6664ZM18.6664 18.6772C18.6664 18.8153 18.6012 18.9275 18.5204 18.9961L17.873 18.234C17.7534 18.3356 17.6664 18.4926 17.6664 18.6772H18.6664ZM18.5204 18.9961C18.4421 19.0626 18.3511 19.0893 18.2699 19.0893V18.0893C18.1338 18.0893 17.99 18.1345 17.873 18.234L18.5204 18.9961ZM18.7699 18.5893V18.5763H17.7699V18.5893H18.7699ZM11.9589 19.0763H15.6298V18.0763H11.9589V19.0763ZM15.6298 19.0763C15.5485 19.0763 15.4575 19.0496 15.3792 18.9831L16.0266 18.221C15.9096 18.1215 15.7659 18.0763 15.6298 18.0763L15.6298 19.0763ZM15.3792 18.9831C15.2984 18.9145 15.2332 18.8022 15.2332 18.6642H16.2332C16.2332 18.4795 16.1462 18.3226 16.0266 18.221L15.3792 18.9831ZM15.2332 18.6642V21.7992H16.2332V18.6642H15.2332ZM15.2336 21.7786C15.239 21.6486 15.3019 21.5442 15.3781 21.4794L16.0256 22.2415C16.1402 22.1441 16.2255 21.996 16.2328 21.8199L15.2336 21.7786ZM15.3781 21.4794C15.4523 21.4164 15.538 21.3896 15.6148 21.3873L15.6447 22.3869C15.7758 22.383 15.913 22.3372 16.0256 22.2415L15.3781 21.4794ZM15.6298 21.3871H11.9589V22.3871H15.6298V21.3871ZM11.9738 21.3873C12.0507 21.3896 12.1363 21.4164 12.2105 21.4794L11.5631 22.2415C11.6757 22.3372 11.8129 22.383 11.944 22.3869L11.9738 21.3873ZM12.2105 21.4794C12.2868 21.5442 12.3496 21.6485 12.355 21.7786L11.3559 21.8199C11.3632 21.996 11.4484 22.1441 11.5631 22.2415L12.2105 21.4794ZM12.3554 21.7992V18.6772H11.3554V21.7992H12.3554ZM12.3478 18.5904C12.3605 18.6621 12.3543 18.735 12.3313 18.802L11.3856 18.4772C11.3542 18.5686 11.346 18.6672 11.363 18.7641L12.3478 18.5904ZM12.3313 18.802C12.3085 18.8684 12.2713 18.923 12.2289 18.9644L11.5306 18.2485C11.4685 18.3092 11.4168 18.3863 11.3856 18.4772L12.3313 18.802ZM12.2289 18.9644C12.1867 19.0056 12.1395 19.0337 12.0935 19.0512L11.7374 18.1168C11.664 18.1447 11.5925 18.1882 11.5306 18.2485L12.2289 18.9644ZM12.0935 19.0512C12.0474 19.0688 12.0001 19.0767 11.9542 19.0763L11.9636 18.0763C11.8877 18.0756 11.8108 18.0888 11.7374 18.1168L12.0935 19.0512Z" fill="#198391" mask="url(#path-1-outside-1_8_135)"/>
</svg>
