<svg width="44" height="36" viewBox="0 0 44 36" fill="none" xmlns="http://www.w3.org/2000/svg">
<path d="M14 29.4286H30M14 29.4286C14 31.9534 12.2091 34 10 34C7.79086 34 6 31.9534 6 29.4286M14 29.4286C14 26.9038 12.2091 24.8571 10 24.8571C7.79086 24.8571 6 26.9038 6 29.4286M30 29.4286C30 31.9534 31.7908 34 34 34C36.2092 34 38 31.9534 38 29.4286M30 29.4286C30 26.9038 31.7908 24.8571 34 24.8571C36.2092 24.8571 38 26.9038 38 29.4286M6 29.4286H5.2C4.0799 29.4286 3.51984 29.4286 3.09202 29.1794C2.7157 28.9602 2.40974 28.6107 2.21798 28.1806C2 27.6917 2 27.0517 2 25.7714V23.0286C2 20.4683 2 19.1881 2.43598 18.2103C2.81946 17.3502 3.43138 16.6507 4.18404 16.2126C5.03968 15.7143 6.1598 15.7143 8.4 15.7143H32.4C33.8864 15.7143 34.6296 15.7143 35.2514 15.8267C38.6746 16.4464 41.3594 19.5147 41.9016 23.427C42 24.1376 42 24.987 42 26.6857C42 27.1104 42 27.3227 41.9754 27.5003C41.8398 28.4784 41.1686 29.2455 40.3128 29.4005C40.1574 29.4286 39.9716 29.4286 39.6 29.4286H38M18 2V15.7143M6 15.7143L6.66304 11.1677C7.13802 7.9107 7.37552 6.28217 8.0866 5.06011C8.71342 3.98286 9.5941 3.13022 10.6269 2.60071C11.7986 2 13.2432 2 16.1324 2H22.8622C24.7406 2 25.6798 2 26.5324 2.29589C27.2872 2.55785 27.9892 2.98729 28.5986 3.55968C29.287 4.20624 29.808 5.09936 30.85 6.88558L36 15.7143" stroke="#198391" stroke-width="4" stroke-linecap="round" stroke-linejoin="round"/>
</svg>
