<svg width="40" height="48" viewBox="0 0 40 48" fill="none" xmlns="http://www.w3.org/2000/svg">
<mask id="path-1-inside-1_4_128" fill="white">
<path d="M27.3359 29.2828L28.2471 28.3408C29.2535 27.3004 29.2535 25.613 28.2471 24.5727L26.6739 22.9477C27.1803 22.0362 27.5775 21.0556 27.8538 20.0206H29.5556C30.9784 20.0206 32.1326 18.8274 32.1326 17.3566V16.0252C32.1326 14.5544 30.9797 13.3612 29.5556 13.3612H27.8744C27.6071 12.3368 27.2279 11.3616 26.7343 10.4567L28.2471 8.8942C29.2535 7.85384 29.2535 6.16642 28.2471 5.12606L27.3359 4.18535C26.3295 3.14499 24.6971 3.14499 23.6907 4.18535L22.2088 5.71732C21.3026 5.17123 20.3232 4.74606 19.2886 4.45375V2.66401C19.2873 1.19183 18.1331 0 16.7102 0H15.4224C13.9995 0 12.844 1.19183 12.844 2.66401V4.45375C11.8094 4.74606 10.8313 5.17123 9.92384 5.71732L8.44059 4.18402C7.43549 3.14366 5.80315 3.14366 4.79676 4.18402L3.88548 5.12473C2.87908 6.16509 2.87908 7.85252 3.88548 8.89287L5.39699 10.4567C4.90472 11.3616 4.52299 12.3368 4.25693 13.3626H2.57704C1.15292 13.3612 0 14.5544 0 16.0266V17.3579C0 18.8288 1.15292 20.0219 2.57704 20.0219H4.27749C4.55512 21.057 4.95099 22.0375 5.45869 22.949L3.88548 24.574C2.87908 25.6144 2.87908 27.3018 3.88548 28.3421L4.79676 29.2842C5.80315 30.3245 7.43549 30.3245 8.44059 29.2842L10.0228 27.6486C10.902 28.1654 11.8467 28.568 12.8428 28.8484V30.5544C12.8428 32.0239 13.997 33.2184 15.4211 33.2184H16.709C18.1318 33.2184 19.286 32.0252 19.286 30.5544V28.8484C20.2821 28.568 21.2294 28.1641 22.106 27.6486L23.6882 29.2842C24.6971 30.3232 26.3282 30.3232 27.3359 29.2828ZM16.0663 24.0585C12.1526 24.0585 8.97914 20.7793 8.97914 16.7321C8.97914 12.6849 12.1526 9.40575 16.0663 9.40575C19.9801 9.40575 23.1535 12.6863 23.1535 16.7321C23.1535 20.7793 19.9801 24.0585 16.0663 24.0585ZM16.0663 13.32C14.2862 13.32 12.844 14.8108 12.844 16.6497C12.844 18.4886 14.2862 19.9794 16.0663 19.9794C17.8452 19.9794 19.2873 18.4886 19.2873 16.6497C19.2873 14.8108 17.8452 13.32 16.0663 13.32ZM32.2123 38.3484C31.3486 38.3484 30.6494 39.0712 30.6494 39.9641C30.6494 40.8557 31.3486 41.5785 32.2123 41.5785C33.0747 41.5785 33.7752 40.8557 33.7752 39.9641C33.7752 39.0712 33.0747 38.3484 32.2123 38.3484ZM38.7545 38.3684H37.9396C37.8098 37.8715 37.6247 37.3984 37.3857 36.9586L38.1183 36.2013C38.6067 35.6964 38.6067 34.8779 38.1183 34.3744L37.6761 33.9173C37.1877 33.4124 36.3973 33.4124 35.9088 33.9173L35.1891 34.66C34.7495 34.3956 34.2739 34.1897 33.7727 34.0475V33.1812C33.7727 32.4677 33.2123 31.8884 32.5221 31.8884H31.8974C31.2072 31.8884 30.6468 32.4677 30.6468 33.1812V34.0475C30.1442 34.1897 29.67 34.3956 29.2304 34.66L28.5106 33.9173C28.0222 33.4124 27.2305 33.4124 26.7433 33.9173L26.3012 34.3744C25.8128 34.8779 25.8128 35.6964 26.3012 36.2013L27.0338 36.9586C26.7935 37.3971 26.6097 37.8715 26.4798 38.3684H25.665C24.9748 38.3684 24.4144 38.9477 24.4144 39.6612V40.3069C24.4144 41.0204 24.9748 41.5997 25.665 41.5997H26.4901C26.6238 42.1006 26.8166 42.5763 27.0621 43.0188L26.2999 43.8067C25.8115 44.3116 25.8115 45.1287 26.2999 45.6349L26.742 46.092C27.2292 46.5956 28.0209 46.5956 28.5093 46.092L29.2767 45.2975C29.7034 45.5473 30.161 45.7439 30.6442 45.8794V46.7072C30.6442 47.4207 31.2046 48 31.8948 48H32.5195C33.2097 48 33.7701 47.4207 33.7701 46.7072V45.8794C34.2534 45.7439 34.7109 45.5486 35.1364 45.2975L35.905 46.092C36.3934 46.5956 37.1839 46.5956 37.6723 46.092L38.1144 45.6349C38.6028 45.1287 38.6028 44.3116 38.1144 43.8067L37.3522 43.0188C37.5964 42.5763 37.7905 42.1006 37.9242 41.5997H38.7494C39.4396 41.5997 40 41.0204 40 40.3069V39.6612C40.0051 38.9464 39.4447 38.3684 38.7545 38.3684ZM32.2123 43.5569C30.3139 43.5569 28.7754 41.9665 28.7754 40.0027C28.7754 38.0402 30.3139 36.4498 32.2123 36.4498C34.1107 36.4498 35.6492 38.0402 35.6492 40.0027C35.6492 41.9665 34.1107 43.5569 32.2123 43.5569Z"/>
</mask>
<path d="M27.3359 29.2828L28.2471 28.3408C29.2535 27.3004 29.2535 25.613 28.2471 24.5727L26.6739 22.9477C27.1803 22.0362 27.5775 21.0556 27.8538 20.0206H29.5556C30.9784 20.0206 32.1326 18.8274 32.1326 17.3566V16.0252C32.1326 14.5544 30.9797 13.3612 29.5556 13.3612H27.8744C27.6071 12.3368 27.2279 11.3616 26.7343 10.4567L28.2471 8.8942C29.2535 7.85384 29.2535 6.16642 28.2471 5.12606L27.3359 4.18535C26.3295 3.14499 24.6971 3.14499 23.6907 4.18535L22.2088 5.71732C21.3026 5.17123 20.3232 4.74606 19.2886 4.45375V2.66401C19.2873 1.19183 18.1331 0 16.7102 0H15.4224C13.9995 0 12.844 1.19183 12.844 2.66401V4.45375C11.8094 4.74606 10.8313 5.17123 9.92384 5.71732L8.44059 4.18402C7.43549 3.14366 5.80315 3.14366 4.79676 4.18402L3.88548 5.12473C2.87908 6.16509 2.87908 7.85252 3.88548 8.89287L5.39699 10.4567C4.90472 11.3616 4.52299 12.3368 4.25693 13.3626H2.57704C1.15292 13.3612 0 14.5544 0 16.0266V17.3579C0 18.8288 1.15292 20.0219 2.57704 20.0219H4.27749C4.55512 21.057 4.95099 22.0375 5.45869 22.949L3.88548 24.574C2.87908 25.6144 2.87908 27.3018 3.88548 28.3421L4.79676 29.2842C5.80315 30.3245 7.43549 30.3245 8.44059 29.2842L10.0228 27.6486C10.902 28.1654 11.8467 28.568 12.8428 28.8484V30.5544C12.8428 32.0239 13.997 33.2184 15.4211 33.2184H16.709C18.1318 33.2184 19.286 32.0252 19.286 30.5544V28.8484C20.2821 28.568 21.2294 28.1641 22.106 27.6486L23.6882 29.2842C24.6971 30.3232 26.3282 30.3232 27.3359 29.2828ZM16.0663 24.0585C12.1526 24.0585 8.97914 20.7793 8.97914 16.7321C8.97914 12.6849 12.1526 9.40575 16.0663 9.40575C19.9801 9.40575 23.1535 12.6863 23.1535 16.7321C23.1535 20.7793 19.9801 24.0585 16.0663 24.0585ZM16.0663 13.32C14.2862 13.32 12.844 14.8108 12.844 16.6497C12.844 18.4886 14.2862 19.9794 16.0663 19.9794C17.8452 19.9794 19.2873 18.4886 19.2873 16.6497C19.2873 14.8108 17.8452 13.32 16.0663 13.32ZM32.2123 38.3484C31.3486 38.3484 30.6494 39.0712 30.6494 39.9641C30.6494 40.8557 31.3486 41.5785 32.2123 41.5785C33.0747 41.5785 33.7752 40.8557 33.7752 39.9641C33.7752 39.0712 33.0747 38.3484 32.2123 38.3484ZM38.7545 38.3684H37.9396C37.8098 37.8715 37.6247 37.3984 37.3857 36.9586L38.1183 36.2013C38.6067 35.6964 38.6067 34.8779 38.1183 34.3744L37.6761 33.9173C37.1877 33.4124 36.3973 33.4124 35.9088 33.9173L35.1891 34.66C34.7495 34.3956 34.2739 34.1897 33.7727 34.0475V33.1812C33.7727 32.4677 33.2123 31.8884 32.5221 31.8884H31.8974C31.2072 31.8884 30.6468 32.4677 30.6468 33.1812V34.0475C30.1442 34.1897 29.67 34.3956 29.2304 34.66L28.5106 33.9173C28.0222 33.4124 27.2305 33.4124 26.7433 33.9173L26.3012 34.3744C25.8128 34.8779 25.8128 35.6964 26.3012 36.2013L27.0338 36.9586C26.7935 37.3971 26.6097 37.8715 26.4798 38.3684H25.665C24.9748 38.3684 24.4144 38.9477 24.4144 39.6612V40.3069C24.4144 41.0204 24.9748 41.5997 25.665 41.5997H26.4901C26.6238 42.1006 26.8166 42.5763 27.0621 43.0188L26.2999 43.8067C25.8115 44.3116 25.8115 45.1287 26.2999 45.6349L26.742 46.092C27.2292 46.5956 28.0209 46.5956 28.5093 46.092L29.2767 45.2975C29.7034 45.5473 30.161 45.7439 30.6442 45.8794V46.7072C30.6442 47.4207 31.2046 48 31.8948 48H32.5195C33.2097 48 33.7701 47.4207 33.7701 46.7072V45.8794C34.2534 45.7439 34.7109 45.5486 35.1364 45.2975L35.905 46.092C36.3934 46.5956 37.1839 46.5956 37.6723 46.092L38.1144 45.6349C38.6028 45.1287 38.6028 44.3116 38.1144 43.8067L37.3522 43.0188C37.5964 42.5763 37.7905 42.1006 37.9242 41.5997H38.7494C39.4396 41.5997 40 41.0204 40 40.3069V39.6612C40.0051 38.9464 39.4447 38.3684 38.7545 38.3684ZM32.2123 43.5569C30.3139 43.5569 28.7754 41.9665 28.7754 40.0027C28.7754 38.0402 30.3139 36.4498 32.2123 36.4498C34.1107 36.4498 35.6492 38.0402 35.6492 40.0027C35.6492 41.9665 34.1107 43.5569 32.2123 43.5569Z" fill="#198391" stroke="black" stroke-opacity="0.1" stroke-width="2" mask="url(#path-1-inside-1_4_128)"/>
</svg>
