<svg width="36" height="36" viewBox="0 0 36 36" fill="none" xmlns="http://www.w3.org/2000/svg">
<path d="M23.6039 2.86259C24.8916 2.4196 26.1115 2 28 2C32 2 34 5.76471 34 10.4706C34 13.4795 33.1823 15.3342 32.3312 17.2646C31.8512 18.3533 31.3606 19.466 31 20.8235C30.702 21.9454 30.5816 23.5688 30.4536 25.2951C30.152 29.3619 29.808 34 27 34C25.202 34 24.4143 31.3378 23.547 28.4068C22.4847 24.8168 21.303 20.8235 18 20.8235C14.697 20.8235 13.5154 24.8168 12.453 28.4068C11.5858 31.3378 10.798 34 9 34C6.192 34 5.848 29.3619 5.5464 25.2951C5.4184 23.5688 5.298 21.9454 5 20.8235C4.6394 19.466 4.1488 18.3533 3.6688 17.2646C2.8176 15.3342 2 13.4795 2 10.4706C2 5.76471 4 2 8 2C9.8886 2 11.1084 2.4196 12.3962 2.86259C13.836 3.35785 15.3606 3.88235 18 3.88235C20.6394 3.88235 22.1641 3.35785 23.6039 2.86259Z" stroke="#198391" stroke-width="4" stroke-linecap="round" stroke-linejoin="round"/>
</svg>
