<svg width="25" height="25" viewBox="0 0 25 25" fill="none" xmlns="http://www.w3.org/2000/svg">
<path d="M3.67963 3.15371L4.62623 2.20711C5.01675 1.81658 5.64992 1.81658 6.04044 2.20711L9.95956 6.12623C10.3501 6.51675 10.3501 7.14992 9.95956 7.54044L8.36233 9.13767C8.14595 9.35405 8.09231 9.68461 8.22916 9.95831C9.81137 13.1227 12.3773 15.6886 15.5417 17.2708C15.8154 17.4077 16.146 17.3541 16.3623 17.1377L17.9596 15.5404C18.3501 15.1499 18.9832 15.1499 19.3738 15.5404L23.2929 19.4596C23.6834 19.8501 23.6834 20.4832 23.2929 20.8738L22.3463 21.8204C20.2349 23.9317 16.8924 24.1693 14.5037 22.3777L10.6286 19.4714C8.88504 18.1638 7.33622 16.615 6.02857 14.8714L3.12226 10.9964C1.33072 8.60763 1.56827 5.26506 3.67963 3.15371Z" stroke="#198391" stroke-width="2"/>
</svg>
